<?xml version="1.0" encoding="utf-8"?>
<!-- Generator: Adobe Illustrator 25.3.1, SVG Export Plug-In . SVG Version: 6.00 Build 0)  -->
<svg version="1.1" id="Layer_1" xmlns="http://www.w3.org/2000/svg" xmlns:xlink="http://www.w3.org/1999/xlink" x="0px" y="0px"
	 viewBox="0 0 240 40" style="enable-background:new 0 0 240 40;" xml:space="preserve">
<style type="text/css">
	.st0{fill:#151515;stroke:#151515;stroke-width:2;stroke-linecap:round;stroke-linejoin:round;stroke-miterlimit:10;}
	.st1{fill:#151515;stroke:#151515;stroke-linecap:round;stroke-linejoin:round;stroke-miterlimit:10;}
	.st2{fill:#2185D0;}
	.st3{display:none;}
	.st4{display:inline;}
	.st5{fill:none;stroke:#188BEA;stroke-miterlimit:10;}
	.st6{fill:none;stroke:#000000;stroke-miterlimit:10;}
	.st7{enable-background:new    ;}
	.st8{fill:#002828;}
</style>
<path class="st0" d="M504.7-7.9l0.1,15.7c-1.4,1.2-3.1,2-5,2.6c-2,0.5-3.9,0.8-5.8,0.8c-2.2,0-4.3-0.3-6.3-1c-1.9-0.7-3.6-1.8-5-3.3
	s-2.5-3.4-3.3-5.7c-1-2.3-1.4-5-1.4-8.2c0-3.3,0.5-6.1,1.4-8.5c0.9-2.3,2.2-4.2,3.8-5.7c1.5-1.5,3.3-2.5,5.2-3.2
	c1.9-0.7,3.9-1,5.9-1s3.8,0.1,5.3,0.4c1.5,0.3,2.7,0.6,3.7,0.9l-1.4,5.8c-0.8-0.3-1.8-0.6-2.8-0.8c-1-0.2-2.4-0.3-4-0.3
	c-1.4,0-2.8,0.2-4,0.7c-1.2,0.4-2.2,1.2-3.1,2.1c-0.9,1-1.6,2.3-2,3.8c-0.5,1.5-0.7,3.4-0.7,5.6c0,2.1,0.2,3.9,0.7,5.5
	s1.1,2.8,2,3.8c0.8,1,1.8,1.7,3,2.2s2.3,0.7,3.6,0.7c0.9,0,1.7-0.1,2.6-0.3c0.8-0.2,1.5-0.5,2.1-1v-6.6l-7.6-0.8v-4.2H504.7z
	 M543.6-7.2c0,5.9-1.2,10.4-3.8,13.6c-2.6,3.2-6.2,4.8-11,4.8c-2.6,0-4.8-0.4-6.6-1.3c-1.9-0.9-3.4-2.1-4.7-3.7
	c-1.2-1.6-2.2-3.5-2.8-5.8c-0.6-2.2-0.9-4.7-0.9-7.5c0-5.9,1.2-10.4,3.8-13.6s6.2-4.8,11-4.8c2.5,0,4.7,0.4,6.6,1.3
	c1.9,0.9,3.4,2.1,4.7,3.7c1.2,1.6,2.2,3.5,2.8,5.8C543.3-12.4,543.6-9.9,543.6-7.2z M536.4-7.1c0-1.7-0.2-3.3-0.4-4.8
	s-0.7-2.8-1.3-3.9s-1.4-2-2.4-2.6s-2.2-0.9-3.6-0.9c-2.4,0-4.3,1-5.7,3s-2,5-2,9.2c0,1.8,0.2,3.4,0.5,4.9s0.8,2.8,1.4,3.8
	c0.6,1.1,1.4,1.9,2.4,2.5s2.1,0.9,3.5,0.9c2.4,0,4.3-1,5.7-2.9C535.8,0.2,536.4-2.9,536.4-7.1z M574.8,3.6l-15.4,0.1l-0.1-29h-6.9
	l0.2,35.2l22.3-0.1L574.8,3.6z M583.7,9.9h6.9l-0.1-14.2l15.1-0.1v-6.1l-15.1,0.1v-8.7l16.2-0.1v-6.1l-23.1,0.1L583.7,9.9z"/>
<path class="st0" d="M465.1,42.2v-66.6 M465.1-23.4L438.3-14l26.8,6.2V-23.4z"/>
<path class="st1" d="M492.8,21.8h2.4V36c0,1.3-0.2,2.4-0.5,3.3s-0.8,1.7-1.4,2.3c-0.6,0.6-1.4,1-2.2,1.3c-0.9,0.3-1.8,0.4-2.9,0.4
	c-2.5,0-4.4-0.6-5.7-1.7c-1.3-1.1-1.9-2.9-1.9-5.2V21.8h2.5v13.5c0,1.1,0.1,2,0.3,2.7c0.2,0.7,0.5,1.3,1,1.8c0.4,0.5,1,0.8,1.6,1
	s1.4,0.3,2.2,0.3c1.6,0,2.8-0.4,3.5-1.3s1.1-2.4,1.1-4.5V21.8L492.8,21.8z M501.2,22c0.8-0.2,1.6-0.3,2.5-0.4s1.8-0.1,2.7-0.1
	c0.9,0,1.9,0.1,2.8,0.3s1.8,0.5,2.6,1s1.4,1.2,1.9,2s0.8,1.9,0.8,3.3c0,1.3-0.2,2.4-0.7,3.3s-1.1,1.6-1.9,2.2
	c-0.8,0.6-1.7,1-2.7,1.2s-2,0.4-3.1,0.4c-0.1,0-0.3,0-0.5,0s-0.5,0-0.7,0s-0.5,0-0.8-0.1c-0.2,0-0.4,0-0.5-0.1v8.1h-2.5L501.2,22
	L501.2,22z M506.4,23.7c-0.5,0-1,0-1.5,0s-0.9,0.1-1.2,0.2v8.8c0.1,0,0.3,0.1,0.5,0.1s0.5,0,0.7,0s0.5,0,0.7,0s0.4,0,0.5,0
	c0.7,0,1.4-0.1,2.1-0.2c0.7-0.1,1.3-0.4,1.8-0.7c0.6-0.3,1-0.8,1.3-1.5s0.5-1.4,0.5-2.4c0-0.8-0.2-1.5-0.5-2.1s-0.7-1-1.2-1.3
	s-1.1-0.6-1.8-0.7C507.7,23.8,507,23.7,506.4,23.7z M525.6,32.4h7.2v9.4c-0.3,0.2-0.7,0.5-1.2,0.7s-0.9,0.4-1.5,0.5
	s-1.1,0.2-1.6,0.3c-0.6,0.1-1.1,0.1-1.6,0.1c-1.4,0-2.6-0.2-3.7-0.7c-1.1-0.4-2.1-1.1-2.9-2s-1.5-2.1-1.9-3.4
	c-0.5-1.4-0.7-3-0.7-4.9c0-2,0.3-3.7,0.8-5c0.6-1.4,1.3-2.5,2.2-3.4s1.9-1.5,3.1-1.9c1.1-0.4,2.3-0.6,3.4-0.6c1.2,0,2.2,0.1,3,0.2
	c0.8,0.1,1.5,0.3,2,0.5l-0.6,2.2c-1-0.5-2.4-0.7-4.2-0.7c-0.8,0-1.7,0.2-2.5,0.4c-0.8,0.3-1.6,0.8-2.3,1.5s-1.2,1.6-1.6,2.7
	c-0.4,1.1-0.6,2.5-0.6,4.1c0,1.5,0.2,2.8,0.5,3.9s0.8,2,1.4,2.7c0.6,0.7,1.4,1.3,2.2,1.6c0.9,0.4,1.8,0.5,2.8,0.5
	c1.3,0,2.4-0.2,3.3-0.8v-5.9l-5-0.6L525.6,32.4L525.6,32.4z M537.7,22c0.8-0.1,1.7-0.2,2.7-0.3s1.9-0.1,2.8-0.1
	c0.9,0,1.8,0.1,2.7,0.3c0.8,0.2,1.6,0.5,2.2,1s1.2,1.1,1.5,1.8c0.4,0.8,0.6,1.7,0.6,2.7c0,1.7-0.5,3-1.4,4s-2.1,1.7-3.5,2.1l1.5,1.1
	l5.3,8.4h-2.9l-5.9-9.2l-3-0.5v9.6h-2.5L537.7,22L537.7,22z M543.2,23.7c-0.3,0-0.5,0-0.8,0s-0.6,0-0.8,0s-0.5,0-0.8,0.1
	c-0.2,0-0.4,0-0.6,0.1v7.8h2.4c1.4,0,2.6-0.3,3.5-1s1.4-1.8,1.4-3.2c0-1.1-0.4-2-1.1-2.7C545.6,24.1,544.6,23.7,543.2,23.7z
	 M565.9,37.2h-7.8l-2.1,5.9h-2.5l8.1-21.6h1.2l8.1,21.6h-2.7L565.9,37.2z M558.9,35h6.2l-2.4-6.5l-0.8-3.2l0,0l-0.8,3.3L558.9,35z
	 M574.3,21.8c0.4-0.1,0.8-0.1,1.3-0.1s1,0,1.5-0.1c0.5,0,1,0,1.5,0s1,0,1.4,0c1.7,0,3.2,0.3,4.4,0.8s2.3,1.3,3.1,2.2
	s1.4,2.1,1.8,3.4c0.4,1.3,0.6,2.8,0.6,4.3c0,1.4-0.2,2.8-0.6,4.2c-0.4,1.3-1,2.5-1.8,3.5s-1.9,1.8-3.2,2.5c-1.3,0.6-2.9,0.9-4.7,0.9
	c-0.3,0-0.8,0-1.3,0s-1.1,0-1.6-0.1s-1.1-0.1-1.5-0.1c-0.5,0-0.8-0.1-1-0.1L574.3,21.8L574.3,21.8z M580.1,23.8c-0.3,0-0.6,0-0.9,0
	c-0.3,0-0.6,0-0.9,0s-0.6,0-0.8,0.1c-0.2,0-0.4,0-0.6,0.1v17c0.1,0,0.3,0,0.6,0.1c0.3,0,0.6,0,0.9,0s0.6,0,0.9,0s0.5,0,0.6,0
	c1.4,0,2.6-0.2,3.6-0.7s1.7-1.1,2.3-2s1-1.8,1.2-2.8s0.4-2.2,0.4-3.3c0-1-0.1-2-0.3-3s-0.6-1.9-1.2-2.7c-0.6-0.8-1.3-1.5-2.2-2
	C582.6,24,581.5,23.8,580.1,23.8z M594.9,21.8h11.6V24h-9.1v7h8.3v2.2h-8.3v7.6h9.2V43h-11.7V21.8z"/>
<g>
	<g>
		<path class="st2" d="M499.3,127.3c0.8,0,1.5,0.1,2.2,0.2c0.7,0.1,1.3,0.4,1.9,0.8c0.6,0.4,1.1,0.8,1.5,1.4
			c0.4,0.6,0.8,1.3,1.1,2.2c0.5-0.1,0.8-0.4,0.8-0.8s-0.1-0.8-0.4-1.4c-0.3-0.6-0.7-1.1-1.2-1.6s-1.3-1-2.2-1.3s-2.2-0.6-3.6-0.6
			c-0.8,0-1.4,0.1-1.9,0.2c-0.5,0.1-1,0.3-1.3,0.4c-0.5-0.3-1-0.6-1.5-1.1s-0.8-0.9-1.1-1.5s-0.5-1.2-0.7-1.8s-0.3-1.4-0.3-2.1
			c0-1.9,0.4-3.6,1.2-4.9c0.8-1.3,1.9-2.5,3.2-3.4c1.3-0.9,2.8-1.5,4.5-1.9s3.4-0.6,5-0.6c1.5,0,2.9,0.1,4.1,0.3s2.3,0.4,3.3,0.7
			s1.8,0.6,2.5,1s1.3,0.8,1.8,1.2c0.2,0.5,0.3,1,0.4,1.6c0.1,0.6,0.1,1.2,0.1,1.9c0,0.4,0,0.9-0.1,1.3c-0.1,0.4-0.2,0.9-0.3,1.3
			c-0.1,0.4-0.3,0.9-0.5,1.2s-0.5,0.7-0.8,1c-0.2-0.2-0.6-0.4-1.1-0.6s-1-0.4-1.7-0.6c-0.7-0.2-1.3-0.3-2-0.5s-1.4-0.2-2.2-0.2
			c-1,0-1.7,0.1-2.1,0.2c-0.4,0.1-0.6,0.4-0.6,0.7c0,0.2,0,0.3,0.1,0.4c0.3-0.1,0.7-0.1,1-0.2c0.3-0.1,0.7,0,1.1,0
			c1.3,0,2.7,0.2,4,0.5s2.5,0.9,3.5,1.7s1.8,1.8,2.5,3.1s0.9,2.8,0.9,4.7c0,1.5-0.3,2.8-0.9,4.1c-0.6,1.3-1.5,2.4-2.8,3.4
			s-2.3,1.9-4.1,2.5s-3.9,0.9-6.2,0.9c-1.2,0-2.3,0-3.4-0.1s-2-0.2-3-0.4s-1.9-0.5-2.7-0.8c-0.8-0.3-1.7-0.7-2.6-1.2
			c-0.5-0.8-0.9-1.5-1.3-2.4s-0.5-1.8-0.5-2.9c0-0.8,0.2-1.6,0.5-2.4c0.3-0.8,0.8-1.4,1.3-1.9s1.2-1,2-1.3
			C497.5,127.4,498.4,127.3,499.3,127.3z"/>
	</g>
	<g>
		<path d="M497.3,125.3c0.8,0,1.5,0.1,2.2,0.2c0.7,0.1,1.3,0.4,1.9,0.8c0.6,0.4,1.1,0.8,1.5,1.4c0.4,0.6,0.8,1.3,1.1,2.2
			c0.5-0.1,0.8-0.4,0.8-0.8c0-0.4-0.1-0.8-0.4-1.4c-0.3-0.6-0.7-1.1-1.2-1.6s-1.3-1-2.2-1.3c-0.9-0.3-2.2-0.6-3.6-0.6
			c-0.8,0-1.4,0.1-1.9,0.2c-0.5,0.1-1,0.3-1.3,0.4c-0.5-0.3-1-0.6-1.5-1.1s-0.8-0.9-1.1-1.5s-0.5-1.2-0.7-1.8s-0.3-1.4-0.3-2.1
			c0-1.9,0.4-3.6,1.2-4.9c0.8-1.3,1.9-2.5,3.2-3.4c1.3-0.9,2.8-1.5,4.5-1.9s3.4-0.6,5-0.6c1.5,0,2.9,0.1,4.1,0.3
			c1.2,0.2,2.3,0.4,3.3,0.7s1.8,0.6,2.5,1s1.3,0.8,1.8,1.2c0.2,0.5,0.3,1,0.4,1.6c0.1,0.6,0.1,1.2,0.1,1.9c0,0.4,0,0.9-0.1,1.3
			c-0.1,0.4-0.2,0.9-0.3,1.3c-0.1,0.4-0.3,0.9-0.5,1.2s-0.5,0.7-0.8,1c-0.2-0.2-0.6-0.4-1.1-0.6s-1-0.4-1.7-0.6
			c-0.7-0.2-1.3-0.3-2-0.5s-1.4-0.2-2.2-0.2c-1,0-1.7,0.1-2.1,0.2c-0.4,0.1-0.6,0.4-0.6,0.7c0,0.2,0,0.3,0.1,0.4
			c0.3-0.1,0.7-0.1,1-0.2c0.3-0.1,0.7,0,1.1,0c1.3,0,2.7,0.2,4,0.5s2.5,0.9,3.5,1.7s1.8,1.8,2.5,3.1s0.9,2.8,0.9,4.7
			c0,1.5-0.3,2.8-0.9,4.1c-0.6,1.3-1.5,2.4-2.8,3.4s-2.3,1.9-4.1,2.5s-3.9,0.9-6.2,0.9c-1.2,0-2.3,0-3.4-0.1s-2-0.2-3-0.4
			s-1.9-0.5-2.7-0.8c-0.8-0.3-1.7-0.7-2.6-1.2c-0.5-0.8-0.9-1.5-1.3-2.4s-0.5-1.8-0.5-2.9c0-0.8,0.2-1.6,0.5-2.4
			c0.3-0.8,0.8-1.4,1.3-1.9s1.2-1,2-1.3C495.5,125.4,496.4,125.3,497.3,125.3z"/>
	</g>
</g>
<g>
	<g>
		<path class="st2" d="M534.3,113.8c-0.8,0-1.5,0.2-2.2,0.4s-1.3,0.5-1.8,0.8s-0.9,0.6-1.2,0.9s-0.4,0.6-0.4,0.8s0.1,0.3,0.2,0.5
			c0.1,0.2,0.3,0.2,0.4,0.2c0.3-0.3,0.6-0.7,1.1-1s1-0.6,1.5-0.9s1.3-0.5,2-0.6s1.6-0.2,2.6-0.2c0.6,0,1.3,0.1,2,0.2
			c0.7,0.1,1.5,0.3,2.2,0.6s1.4,0.7,2.1,1.1c0.7,0.5,1.3,1,1.8,1.7s0.9,1.5,1.3,2.5c0.4,1,0.5,2.1,0.5,3.4c0,0.7,0,1.5,0,2.2
			s0,1.6,0,2.3c0,1.1,0.1,2,0.4,2.7s0.7,1.3,1.3,1.7c0,0.1,0,0.3,0,0.5s0,0.3,0,0.4c0,1.1-0.2,2.1-0.5,2.9s-0.8,1.6-1.4,2.1
			c-0.6,0.5-1.3,1-2.1,1.3s-1.6,0.4-2.5,0.4s-1.8-0.1-2.7-0.4c-0.9-0.3-1.6-0.6-2.3-1.1s-1.2-1.4-1.5-2.3s-0.6-2.1-0.6-3.5
			c0-0.7,0-1.4,0.1-2.1c0.1-0.7,0.1-1.3,0.2-1.8c0.1-0.5,0.1-1.1,0.2-1.6c0.1-0.5,0.1-0.9,0.1-1.3c0-0.8-0.1-1.3-0.2-1.5
			c-0.1-0.2-0.4-0.4-0.8-0.4c-0.2,0-0.5,0.1-0.7,0.2l0.3,3.8c-0.1,0.5-0.1,0.9-0.2,1.4c-0.1,0.5-0.1,0.9-0.1,1.3
			c0,0.4-0.1,0.8-0.1,1.1s0,0.6,0,0.8c0,1.2,0.1,2.2,0.4,3c0.3,0.8,0.5,1.5,0.8,2.1c-0.7,0.7-1.6,1.3-2.7,1.7
			c-1.1,0.4-2.4,0.6-3.8,0.6c-0.7,0-1.4-0.1-2.1-0.3s-1.4-0.5-2-0.9s-1.1-0.9-1.4-1.5c-0.3-0.6-0.6-1.3-0.6-2.2v-27.3
			c0.7-0.4,1.6-0.8,2.7-1.1s2.1-0.4,3.2-0.4c0.8,0,1.6,0.1,2.4,0.3c0.8,0.2,1.5,0.4,2.1,0.8c0.6,0.4,1.1,0.8,1.5,1.4
			c0.4,0.6,0.6,1.3,0.6,2.1L534.3,113.8L534.3,113.8z"/>
	</g>
	<g>
		<path d="M532.3,111.8c-0.8,0-1.5,0.2-2.2,0.4s-1.3,0.5-1.8,0.8s-0.9,0.6-1.2,0.9s-0.4,0.6-0.4,0.8s0.1,0.3,0.2,0.5
			c0.1,0.2,0.3,0.2,0.4,0.2c0.3-0.3,0.6-0.7,1.1-1s1-0.6,1.5-0.9s1.3-0.5,2-0.6s1.6-0.2,2.6-0.2c0.6,0,1.3,0.1,2,0.2
			c0.7,0.1,1.5,0.3,2.2,0.6s1.4,0.7,2.1,1.1c0.7,0.5,1.3,1,1.8,1.7s0.9,1.5,1.3,2.5c0.4,1,0.5,2.1,0.5,3.4c0,0.7,0,1.5,0,2.2
			s0,1.6,0,2.3c0,1.1,0.1,2,0.4,2.7s0.7,1.3,1.3,1.7c0,0.1,0,0.3,0,0.5s0,0.3,0,0.4c0,1.1-0.2,2.1-0.5,2.9c-0.3,0.8-0.8,1.6-1.4,2.1
			c-0.6,0.5-1.3,1-2.1,1.3s-1.6,0.4-2.5,0.4s-1.8-0.1-2.7-0.4c-0.9-0.3-1.6-0.6-2.3-1.1s-1.2-1.4-1.5-2.3s-0.6-2.1-0.6-3.5
			c0-0.7,0-1.4,0.1-2.1c0.1-0.7,0.1-1.3,0.2-1.8c0.1-0.5,0.1-1.1,0.2-1.6c0.1-0.5,0.1-0.9,0.1-1.3c0-0.8-0.1-1.3-0.2-1.5
			c-0.1-0.2-0.4-0.4-0.8-0.4c-0.2,0-0.5,0.1-0.7,0.2l0.3,3.8c-0.1,0.5-0.1,0.9-0.2,1.4c-0.1,0.5-0.1,0.9-0.1,1.3
			c0,0.4-0.1,0.8-0.1,1.1s0,0.6,0,0.8c0,1.2,0.1,2.2,0.4,3c0.3,0.8,0.5,1.5,0.8,2.1c-0.7,0.7-1.6,1.3-2.7,1.7
			c-1.1,0.4-2.4,0.6-3.8,0.6c-0.7,0-1.4-0.1-2.1-0.3s-1.4-0.5-2-0.9s-1.1-0.9-1.4-1.5c-0.3-0.6-0.6-1.3-0.6-2.2v-27.3
			c0.7-0.4,1.6-0.8,2.7-1.1s2.1-0.4,3.2-0.4c0.8,0,1.6,0.1,2.4,0.3c0.8,0.2,1.5,0.4,2.1,0.8c0.6,0.4,1.1,0.8,1.5,1.4
			c0.4,0.6,0.6,1.3,0.6,2.1L532.3,111.8L532.3,111.8z"/>
	</g>
</g>
<g>
	<g>
		<path class="st2" d="M561.5,141.1c-1.8,0-3.5-0.3-5.1-0.8s-3-1.4-4.2-2.6c-1.2-1.2-2.1-2.6-2.8-4.3s-1-3.7-1-6
			c0-2.1,0.3-3.9,1-5.6c0.7-1.7,1.5-3.1,2.7-4.3s2.5-2.1,4.1-2.7c1.6-0.6,3.4-0.9,5.3-0.9c1.9,0,3.7,0.3,5.3,1s3,1.6,4.1,2.8
			s2,2.7,2.7,4.3s0.9,3.5,0.9,5.5c0,2.1-0.3,3.9-0.9,5.6s-1.5,3.1-2.6,4.2c-1.1,1.1-2.5,2.1-4.1,2.7
			C565.3,140.6,563.6,141.1,561.5,141.1z M561,131.4c0.1,0.1,0.3,0.2,0.5,0.2c0.3,0,0.5-0.1,0.6-0.3s0.2-0.5,0.2-0.9V127
			c0-0.7,0-1.3,0-1.8s-0.1-0.9-0.2-1.2s-0.2-0.5-0.3-0.6s-0.3-0.1-0.4-0.1c-0.1,0-0.3,0-0.3,0.1s-0.2,0.1-0.2,0.2
			c0,0.2,0,0.5,0.1,0.7s0.1,0.5,0.1,0.7s0,0.6,0,1s0,0.8,0,1.3L561,131.4L561,131.4z"/>
	</g>
	<g>
		<path d="M559.5,139.1c-1.8,0-3.5-0.3-5.1-0.8s-3-1.4-4.2-2.6c-1.2-1.2-2.1-2.6-2.8-4.3s-1-3.7-1-6c0-2.1,0.3-3.9,1-5.6
			c0.7-1.7,1.5-3.1,2.7-4.3s2.5-2.1,4.1-2.7c1.6-0.6,3.4-0.9,5.3-0.9c1.9,0,3.7,0.3,5.3,1s3,1.6,4.1,2.8s2,2.7,2.7,4.3
			s0.9,3.5,0.9,5.5c0,2.1-0.3,3.9-0.9,5.6s-1.5,3.1-2.6,4.2c-1.1,1.1-2.5,2.1-4.1,2.7C563.3,138.6,561.6,139.1,559.5,139.1z
			 M559,129.4c0.1,0.1,0.3,0.2,0.5,0.2c0.3,0,0.5-0.1,0.6-0.3s0.2-0.5,0.2-0.9V125c0-0.7,0-1.3,0-1.8s-0.1-0.9-0.2-1.2
			s-0.2-0.5-0.3-0.6s-0.3-0.1-0.4-0.1c-0.1,0-0.3,0-0.3,0.1s-0.2,0.1-0.2,0.2c0,0.2,0,0.5,0.1,0.7s0.1,0.5,0.1,0.7s0,0.6,0,1
			s0,0.8,0,1.3L559,129.4L559,129.4z"/>
	</g>
</g>
<g>
	<g>
		<path class="st2" d="M579.8,114.8c0.7,0,1.2,0,1.8,0.1s1,0.2,1.3,0.4c-0.9,0.6-1.5,1.2-1.8,1.7c-0.1,0.2-0.2,0.4-0.2,0.6
			c0,0.2,0.1,0.4,0.2,0.5c0.1,0.1,0.3,0.2,0.6,0.2c0.5-0.7,0.9-1.3,1.5-1.9c0.6-0.6,1.1-1,1.8-1.4s1.4-0.6,2.2-0.8s1.7-0.3,2.7-0.3
			c0.6,0,1.3,0.1,2.1,0.2c0.8,0.1,1.6,0.3,2.5,0.7s1.7,0.8,2.5,1.4c0.8,0.6,1.6,1.4,2.2,2.4c0.6,1,1.2,2.2,1.6,3.6
			c0.4,1.4,0.6,3.1,0.6,5.1s-0.3,3.9-0.8,5.5s-1.4,3-2.4,4.1s-2.4,1.9-3.9,2.5s-3.2,0.9-5.2,0.9c-0.8,0-1.5,0-2.1-0.1
			s-1.1-0.1-1.5-0.2c-0.4-0.1-0.7-0.2-0.9-0.3s-0.4-0.2-0.5-0.2c-0.1,0.1-0.2,0.2-0.2,0.4s0.1,0.4,0.3,0.6s0.4,0.3,0.8,0.4
			c0.4,0.1,1,0.3,1.6,0.3s1.4,0.1,2.3,0.2v6.2c-0.3,0.1-0.7,0.3-1.1,0.4c-0.4,0.1-0.9,0.2-1.3,0.4c-0.4,0.2-0.9,0.2-1.4,0.2
			s-1,0.1-1.4,0.1c-1.1,0-2-0.1-2.9-0.3s-1.6-0.5-2.2-0.9s-1.1-1-1.4-1.7c-0.3-0.7-0.5-1.5-0.5-2.5v-18.8c-0.5-0.7-0.8-1.4-1-2.2
			s-0.3-1.7-0.3-2.6c0-0.4,0-0.8,0.1-1.2s0.1-0.9,0.3-1.3s0.3-0.9,0.4-1.3c0.1-0.4,0.4-0.8,0.6-1.2h3L579.8,114.8L579.8,114.8z
			 M588.5,130.9c0.1,0.1,0.3,0.2,0.5,0.2c0.3,0,0.5-0.1,0.6-0.3s0.2-0.5,0.2-0.9v-2.4c0-0.7,0-1.3,0-1.8s-0.1-0.9-0.2-1.2
			s-0.2-0.5-0.3-0.6s-0.3-0.1-0.4-0.1c-0.1,0-0.3,0-0.3,0.1s-0.2,0.1-0.2,0.2c0,0.2,0,0.5,0.1,0.7s0.1,0.5,0.1,0.7s0,0.6,0,1
			s0,0.8,0,1.3L588.5,130.9L588.5,130.9z"/>
	</g>
	<g>
		<path d="M577.8,112.8c0.7,0,1.2,0,1.8,0.1s1,0.2,1.3,0.4c-0.9,0.6-1.5,1.2-1.8,1.7c-0.1,0.2-0.2,0.4-0.2,0.6
			c0,0.2,0.1,0.4,0.2,0.5c0.1,0.1,0.3,0.2,0.6,0.2c0.5-0.7,0.9-1.3,1.5-1.9c0.6-0.6,1.1-1,1.8-1.4s1.4-0.6,2.2-0.8s1.7-0.3,2.7-0.3
			c0.6,0,1.3,0.1,2.1,0.2c0.8,0.1,1.6,0.3,2.5,0.7s1.7,0.8,2.5,1.4c0.8,0.6,1.6,1.4,2.2,2.4c0.6,1,1.2,2.2,1.6,3.6
			c0.4,1.4,0.6,3.1,0.6,5.1s-0.3,3.9-0.8,5.5s-1.4,3-2.4,4.1s-2.4,1.9-3.9,2.5s-3.2,0.9-5.2,0.9c-0.8,0-1.5,0-2.1-0.1
			s-1.1-0.1-1.5-0.2c-0.4-0.1-0.7-0.2-0.9-0.3s-0.4-0.2-0.5-0.2c-0.1,0.1-0.2,0.2-0.2,0.4s0.1,0.4,0.3,0.6s0.4,0.3,0.8,0.4
			c0.4,0.1,1,0.3,1.6,0.3s1.4,0.1,2.3,0.2v6.2c-0.3,0.1-0.7,0.3-1.1,0.4c-0.4,0.1-0.9,0.2-1.3,0.4c-0.4,0.2-0.9,0.2-1.4,0.2
			s-1,0.1-1.4,0.1c-1.1,0-2-0.1-2.9-0.3s-1.6-0.5-2.2-0.9s-1.1-1-1.4-1.7c-0.3-0.7-0.5-1.5-0.5-2.5v-18.8c-0.5-0.7-0.8-1.4-1-2.2
			s-0.3-1.7-0.3-2.6c0-0.4,0-0.8,0.1-1.2s0.1-0.9,0.3-1.3s0.3-0.9,0.4-1.3c0.1-0.4,0.4-0.8,0.6-1.2h3L577.8,112.8L577.8,112.8z
			 M586.5,128.9c0.1,0.1,0.3,0.2,0.5,0.2c0.3,0,0.5-0.1,0.6-0.3s0.2-0.5,0.2-0.9v-2.4c0-0.7,0-1.3,0-1.8s-0.1-0.9-0.2-1.2
			s-0.2-0.5-0.3-0.6s-0.3-0.1-0.4-0.1c-0.1,0-0.3,0-0.3,0.1s-0.2,0.1-0.2,0.2c0,0.2,0,0.5,0.1,0.7s0.1,0.5,0.1,0.7s0,0.6,0,1
			s0,0.8,0,1.3L586.5,128.9L586.5,128.9z"/>
	</g>
</g>
<g>
	<g>
		<path class="st2" d="M496.9,76.5c-0.1,0.1-0.3,0.2-0.6,0.3c-0.3,0.1-0.5,0.1-0.9,0.1c-0.2,0-0.4,0-0.5-0.1s-0.3,0-0.4-0.1
			s-0.2-0.2-0.3-0.3c-0.1-0.1-0.2-0.2-0.2-0.4v-3.1h-1.1c-0.1-0.2-0.2-0.4-0.3-0.6c0-0.1-0.1-0.3-0.1-0.5c0-0.1,0-0.3,0-0.4
			c0.1-0.2,0.1-0.3,0.2-0.4c0-0.1,0.1-0.2,0.1-0.3c0.1-0.1,0.1-0.1,0.2-0.2h5c0.1,0.1,0.2,0.3,0.2,0.5s0.1,0.4,0.1,0.6
			s0,0.4-0.1,0.5c0,0.1-0.1,0.3-0.2,0.3c0,0.3-0.1,0.4-0.2,0.4s-0.2,0.1-0.4,0.1H496V73v0.1c0,0,0,0,0.1,0s0.1,0,0.2,0s0.2,0,0.3,0
			h0.3L496.9,76.5L496.9,76.5z"/>
	</g>
	<g>
		<path d="M494.9,74.5c-0.1,0.1-0.3,0.2-0.6,0.3c-0.3,0.1-0.5,0.2-0.9,0.2c-0.2,0-0.4,0-0.5-0.1s-0.3-0.1-0.4-0.2
			c-0.2,0-0.3-0.1-0.4-0.3c0-0.1-0.1-0.2-0.1-0.4v-3.1h-1.1c-0.1-0.2-0.2-0.4-0.3-0.6c0-0.1-0.1-0.3-0.1-0.5c0-0.1,0-0.3,0-0.4
			c0.1-0.2,0.1-0.3,0.2-0.4c0-0.1,0.1-0.2,0.1-0.3c0.1-0.1,0.1-0.1,0.2-0.2h5c0.1,0.1,0.2,0.3,0.2,0.5s0.1,0.4,0.1,0.6
			s0,0.4-0.1,0.5c0,0.1-0.1,0.3-0.2,0.3c0,0.3-0.1,0.4-0.2,0.4s-0.2,0.1-0.4,0.1H494V71v0.1c0,0,0,0,0.1,0s0.1,0,0.2,0s0.2,0,0.3,0
			h0.3L494.9,74.5L494.9,74.5z"/>
	</g>
</g>
<g>
	<g>
		<path class="st2" d="M501.2,71.4c-0.2,0-0.3,0-0.4,0.1c-0.1,0-0.3,0.1-0.4,0.2s-0.2,0.1-0.2,0.2c-0.1,0.1-0.1,0.1-0.1,0.2v0.1h0.1
			c0.1-0.1,0.1-0.1,0.2-0.2s0.2-0.1,0.3-0.2s0.3-0.1,0.4-0.1s0.3,0,0.5,0c0.1,0,0.3,0,0.4,0s0.3,0.1,0.5,0.1s0.3,0.1,0.4,0.2
			s0.3,0.2,0.4,0.4c0.1,0.2,0.2,0.3,0.3,0.5c0.1,0.2,0.1,0.4,0.1,0.7c0,0.1,0,0.3,0,0.5s0,0.3,0,0.5s0,0.4,0.1,0.6s0.1,0.3,0.3,0.3
			v0.1v0.1c0,0.2,0,0.4-0.1,0.6s-0.2,0.3-0.3,0.4s-0.3,0.2-0.4,0.3c-0.2,0.1-0.3,0.1-0.5,0.1s-0.4,0-0.6-0.1s-0.3-0.1-0.5-0.3
			c-0.1-0.1-0.2-0.3-0.3-0.5c-0.1-0.2-0.1-0.4-0.1-0.7c0-0.2,0-0.3,0-0.4s0-0.3,0-0.4s0-0.2,0-0.3c0-0.1,0-0.2,0-0.3
			c0-0.2,0-0.3-0.1-0.3c0-0.1-0.1-0.1-0.2-0.1h-0.1l0.1,0.8c0,0.1,0,0.2,0,0.3c0,0.1,0,0.2,0,0.3s0,0.2,0,0.2s0,0.1,0,0.2
			c0,0.3,0,0.5,0.1,0.6s0.1,0.3,0.2,0.4c-0.1,0.1-0.3,0.3-0.6,0.4c-0.2,0.1-0.5,0.1-0.8,0.1c-0.1,0-0.3,0-0.4-0.1s-0.3-0.1-0.4-0.2
			s-0.2-0.2-0.3-0.3c-0.2-0.1-0.2-0.3-0.2-0.5v-5.7c0.1,0,0.3-0.1,0.5-0.2s0.4-0.1,0.7-0.1c0.2,0,0.3,0,0.5,0.1s0.3,0.1,0.4,0.2
			s0.2,0.2,0.3,0.3c0.1,0.1,0.1,0.3,0.1,0.4v0.5C501.1,71.4,501.2,71.4,501.2,71.4z"/>
	</g>
	<g>
		<path d="M499.2,69.4c-0.2,0-0.3,0-0.4,0.1c-0.2,0-0.4,0-0.5,0.1s-0.1,0.1-0.2,0.2S498,69.9,498,70v0.1h0.1
			c0.1-0.1,0.1-0.1,0.2-0.2c0.2-0.1,0.3-0.1,0.4-0.2s0.3-0.1,0.4-0.1s0.3,0,0.5,0c0.1,0,0.3,0,0.4,0s0.3,0.1,0.5,0.1
			s0.3,0.1,0.4,0.2s0.3,0.2,0.4,0.4c0.1,0.1,0.2,0.3,0.3,0.5c0.1,0.2,0.1,0.4,0.1,0.7c0,0.1,0,0.3,0,0.5s0,0.3,0,0.5s0,0.4,0.1,0.6
			s0.1,0.3,0.3,0.3v0.1v0.1c0,0.2,0,0.4-0.1,0.6s-0.2,0.3-0.3,0.4s-0.3,0.2-0.4,0.3c-0.2,0.1-0.3,0.1-0.5,0.1s-0.4,0-0.6-0.1
			s-0.3-0.1-0.5-0.3c-0.2-0.1-0.3-0.2-0.4-0.4c0-0.2-0.1-0.5-0.1-0.8c0-0.2,0-0.3,0-0.4s0-0.3,0-0.4s0-0.2,0-0.3s0-0.2,0-0.3
			c0-0.2,0-0.3-0.1-0.3c0-0.1-0.1-0.1-0.2-0.1h-0.1l0.1,0.8c0,0.1,0,0.2,0,0.3s0,0.2,0,0.3c0,0.1,0,0.2,0,0.2s0,0.1,0,0.2
			c0,0.3,0,0.5,0.1,0.6c0.1,0.2,0.1,0.4,0.2,0.5c-0.1,0.1-0.3,0.3-0.6,0.3c-0.2,0.1-0.4,0.2-0.7,0.2c-0.1,0-0.3,0-0.4-0.1
			s-0.4-0.1-0.5-0.2s-0.2-0.2-0.3-0.3c-0.1-0.1-0.1-0.3-0.1-0.5v-5.7c0.1,0,0.3-0.1,0.5-0.2c0.3,0,0.5-0.1,0.7-0.1s0.3,0,0.5,0.1
			s0.3,0.1,0.4,0.2c0.2,0,0.3,0.1,0.3,0.3c0.1,0.1,0.1,0.3,0.1,0.4v0.5L499.2,69.4L499.2,69.4z"/>
	</g>
</g>
<g>
	<g>
		<path class="st2" d="M507,77c-0.4,0-0.8-0.1-1.2-0.2c-0.4-0.1-0.7-0.3-0.9-0.6c-0.3-0.2-0.5-0.5-0.6-0.9s-0.2-0.6-0.2-1.1
			s0.1-0.9,0.2-1.2c0.1-0.3,0.3-0.6,0.6-0.9c0.3-0.3,0.5-0.4,0.9-0.5s0.7-0.2,1.1-0.2s0.7,0.1,1.1,0.2c0.3,0.1,0.6,0.3,0.8,0.5
			s0.4,0.4,0.5,0.7c0.1,0.3,0.2,0.6,0.2,0.9s-0.1,0.5-0.2,0.7c-0.1,0.2-0.2,0.4-0.4,0.5s-0.4,0.2-0.6,0.3c-0.2,0.1-0.5,0.1-0.8,0.1
			c-0.2,0-0.4,0-0.6-0.1s-0.4-0.1-0.5-0.2c0,0,0,0,0,0.1c0,0,0,0,0,0.1c0,0,0,0.1,0.1,0.1s0.2,0.1,0.3,0.1c0.1,0,0.2,0.1,0.4,0.1
			c0.1,0,0.3,0,0.4,0c0.2,0,0.4,0,0.6,0s0.3-0.1,0.4-0.1s0.2-0.1,0.3-0.1c0.1,0,0.2-0.1,0.2-0.1s0.1,0.1,0.1,0.2s0.1,0.1,0.1,0.2
			s0,0.2,0.1,0.3c0,0.1,0,0.2,0,0.2s0,0.1,0,0.2s0,0.1,0,0.2c-0.1,0.1-0.2,0.2-0.3,0.3s-0.3,0.2-0.4,0.2c-0.2,0.1-0.4,0.1-0.6,0.1
			C507.6,77,507.3,77,507,77z M507,73.7c0.1,0,0.1,0,0.2-0.1l0.1-0.1c0-0.1,0-0.1-0.1-0.1s-0.1,0-0.2,0s-0.2,0-0.2,0.1
			c-0.1,0-0.1,0.1-0.1,0.2c0,0,0.1,0,0.1,0.1C506.8,73.7,506.9,73.7,507,73.7z"/>
	</g>
	<g>
		<path d="M505,75c-0.4,0-0.8-0.1-1.2-0.2c-0.4-0.1-0.7-0.3-0.9-0.6c-0.3-0.2-0.5-0.5-0.6-0.9s-0.2-0.6-0.2-1.1s0.1-0.9,0.2-1.2
			c0.1-0.3,0.3-0.6,0.6-0.9c0.3-0.2,0.5-0.4,0.9-0.5s0.7-0.2,1.1-0.2s0.7,0.1,1.1,0.2c0.3,0.1,0.6,0.3,0.8,0.5
			c0.2,0.2,0.4,0.4,0.5,0.7c0.1,0.3,0.2,0.6,0.2,0.9s-0.1,0.5-0.2,0.7s-0.2,0.4-0.4,0.5c-0.2,0.1-0.4,0.2-0.6,0.3
			c-0.2,0.1-0.5,0.1-0.8,0.1c-0.2,0-0.4,0-0.6-0.1s-0.4-0.1-0.5-0.2c0,0,0,0,0,0.1c0,0,0,0,0,0.1c0,0,0,0.1,0.1,0.1s0.2,0.1,0.3,0.1
			c0.1,0,0.2,0.1,0.4,0.1c0.1,0,0.3,0,0.4,0c0.2,0,0.4,0,0.6,0s0.3-0.1,0.4-0.1s0.2-0.1,0.3-0.1c0.1,0,0.2-0.1,0.2-0.1
			s0.1,0.1,0.1,0.2s0.1,0.1,0.1,0.2s0,0.2,0.1,0.3c0,0.1,0,0.2,0,0.2s0,0.1,0,0.2s0,0.1,0,0.2c-0.1,0.1-0.2,0.2-0.3,0.3
			s-0.3,0.2-0.4,0.2c-0.2,0.1-0.4,0.1-0.6,0.1C505.6,75,505.3,75,505,75z M505,71.7c0.1,0,0.1,0,0.2-0.1l0.1-0.1
			c0-0.1,0-0.1-0.1-0.1s-0.1,0-0.2,0s-0.2,0-0.2,0.1c-0.1,0-0.1,0.1-0.1,0.2c0,0,0.1,0,0.1,0.1C504.8,71.7,504.9,71.7,505,71.7z"/>
	</g>
</g>
<g>
	<g>
		<path class="st2" d="M525.3,93.5c-0.5,0-1-0.1-1.4-0.3c-0.4-0.2-0.8-0.5-1.1-0.9s-0.6-0.9-0.8-1.5s-0.3-1.3-0.3-2
			c0-0.6,0.1-1.1,0.2-1.6c0.1-0.5,0.2-0.9,0.4-1.3s0.3-0.7,0.5-1s0.4-0.5,0.5-0.6h13.9c0.5,0.7,0.8,1.5,1,2.3s0.3,1.7,0.3,2.5
			c0,0.9-0.1,1.8-0.3,2.6c-0.2,0.8-0.5,1.4-0.8,1.9h-1v7c-0.6,0.5-1.3,1-2.1,1.5s-1.7,0.9-2.7,1.3c-1,0.4-2.1,0.7-3.3,0.9
			s-2.6,0.3-4.1,0.3s-2.9-0.1-4.3-0.4c-1.4-0.3-2.7-0.7-3.9-1.2s-2.4-1.3-3.4-2.1s-1.9-1.9-2.7-3s-1.3-2.5-1.7-4s-0.6-3.3-0.6-5.2
			c0-2.6,0.4-4.9,1.2-6.9s1.9-3.6,3.4-5s3.2-2.3,5.2-3s4.2-1,6.6-1c1.3,0,2.5,0.1,3.7,0.3c1.2,0.2,2.3,0.5,3.4,0.8
			c1,0.4,2,0.8,2.9,1.2c0.9,0.4,1.6,0.9,2.2,1.5c0,0.5,0,1.1-0.1,1.7s-0.1,1.2-0.2,1.8c-0.1,0.6-0.2,1.2-0.4,1.7s-0.3,1-0.5,1.3
			h-12.5c-0.2,0.2-0.4,0.5-0.6,0.8c-0.2,0.3-0.5,0.8-0.7,1.2c-0.2,0.4-0.4,1-0.5,1.6s-0.2,1.3-0.2,2.1c0,1,0.1,1.8,0.4,2.5
			c0.3,0.7,0.6,1.3,1,1.7c0.4,0.5,0.9,0.8,1.4,1s1.1,0.3,1.6,0.3c0.3,0,0.5-0.1,0.6-0.2s0.2-0.2,0.2-0.4v-0.5h-0.4L525.3,93.5
			L525.3,93.5z"/>
	</g>
	<g>
		<path d="M523.3,91.5c-0.5,0-1-0.1-1.4-0.3c-0.4-0.2-0.8-0.5-1.1-0.9s-0.6-0.9-0.8-1.5s-0.3-1.3-0.3-2c0-0.6,0.1-1.1,0.2-1.6
			c0.1-0.5,0.2-0.9,0.4-1.3s0.3-0.7,0.5-1s0.4-0.5,0.5-0.6h13.9c0.5,0.7,0.8,1.5,1,2.3s0.3,1.7,0.3,2.5c0,0.9-0.1,1.8-0.3,2.6
			c-0.2,0.8-0.5,1.4-0.8,1.9h-1v7c-0.6,0.5-1.3,1-2.1,1.5s-1.7,0.9-2.7,1.3c-1,0.4-2.1,0.7-3.3,0.9s-2.6,0.3-4.1,0.3
			s-2.9-0.1-4.3-0.4c-1.4-0.3-2.7-0.7-3.9-1.2s-2.4-1.3-3.4-2.1s-1.9-1.9-2.7-3c-0.8-1.1-1.3-2.5-1.7-4s-0.6-3.3-0.6-5.2
			c0-2.6,0.4-4.9,1.2-6.9c0.8-2,1.9-3.6,3.4-5s3.2-2.3,5.2-3s4.2-1,6.6-1c1.3,0,2.5,0.1,3.7,0.3c1.2,0.2,2.3,0.5,3.4,0.8
			c1.1,0.3,2,0.8,2.9,1.2c0.9,0.4,1.6,0.9,2.2,1.5c0,0.5,0,1.1-0.1,1.7s-0.1,1.2-0.2,1.8c-0.1,0.6-0.2,1.2-0.4,1.7s-0.3,1-0.5,1.3
			h-12.5c-0.2,0.2-0.4,0.5-0.6,0.8c-0.2,0.3-0.5,0.8-0.7,1.2c-0.2,0.4-0.4,1-0.5,1.6s-0.2,1.3-0.2,2.1c0,1,0.1,1.8,0.4,2.5
			c0.3,0.7,0.6,1.3,1,1.7c0.4,0.4,0.9,0.8,1.4,1s1.1,0.3,1.6,0.3c0.3,0,0.5-0.1,0.6-0.2s0.2-0.2,0.2-0.4v-0.5h-0.4L523.3,91.5
			L523.3,91.5z"/>
	</g>
</g>
<g>
	<g>
		<path class="st2" d="M552.5,104.6c-1.8,0-3.5-0.3-5.1-0.8s-3-1.4-4.2-2.6c-1.2-1.2-2.1-2.6-2.8-4.3s-1-3.7-1-6
			c0-2.1,0.3-3.9,1-5.6s1.5-3.1,2.7-4.3s2.5-2.1,4.1-2.7s3.4-0.9,5.3-0.9c1.9,0,3.7,0.3,5.3,1s3,1.6,4.1,2.8c1.1,1.2,2,2.7,2.7,4.3
			c0.7,1.6,1,3.7,1,5.7c0,2.1-0.3,3.9-0.9,5.6c-0.6,1.7-1.5,3.1-2.6,4.2c-1.1,1.1-2.5,2.1-4.1,2.7
			C556.4,104.3,554.5,104.6,552.5,104.6z M551.9,94.9c0.1,0.1,0.3,0.2,0.5,0.2c0.3,0,0.5-0.1,0.6-0.3c0.1-0.2,0.2-0.5,0.2-0.9v-3.4
			c0-0.7,0-1.3,0-1.8s-0.1-0.9-0.2-1.2c-0.1-0.3-0.2-0.5-0.3-0.6s-0.3-0.1-0.4-0.1c-0.1,0-0.3,0-0.3,0.1s-0.2,0.1-0.2,0.2
			c0,0.2,0,0.5,0.1,0.7s0.1,0.5,0.1,0.7s0,0.6,0,1s0,0.8,0,1.3L551.9,94.9L551.9,94.9L551.9,94.9z"/>
	</g>
	<g>
		<path d="M550.5,102.6c-1.8,0-3.5-0.3-5.1-0.8s-3-1.4-4.2-2.6c-1.2-1.2-2.1-2.6-2.8-4.3s-1-3.7-1-6c0-2.1,0.3-3.9,1-5.6
			s1.5-3.1,2.7-4.3s2.5-2.1,4.1-2.7s3.4-0.9,5.3-0.9c1.9,0,3.7,0.3,5.3,1s3,1.6,4.1,2.8c1.1,1.2,2,2.7,2.7,4.3c0.7,1.6,1,3.7,1,5.7
			c0,2.1-0.3,3.9-0.9,5.6c-0.6,1.7-1.5,3.1-2.6,4.2s-2.5,2.1-4.1,2.7C554.4,102.3,552.5,102.6,550.5,102.6z M549.9,92.9
			c0.1,0.1,0.3,0.2,0.5,0.2c0.3,0,0.5-0.1,0.6-0.3c0.1-0.2,0.2-0.5,0.2-0.9v-3.4c0-0.7,0-1.3,0-1.8s-0.1-0.9-0.2-1.2
			c-0.1-0.3-0.2-0.5-0.3-0.6s-0.3-0.1-0.4-0.1c-0.1,0-0.3,0-0.3,0.1s-0.2,0.1-0.2,0.2c0,0.2,0,0.5,0.1,0.7s0.1,0.5,0.1,0.7
			s0,0.6,0,1s0,0.8,0,1.3L549.9,92.9L549.9,92.9L549.9,92.9z"/>
	</g>
</g>
<g>
	<g>
		<path class="st2" d="M567.7,71.6c0.3-0.2,0.8-0.3,1.2-0.5s1-0.3,1.6-0.4s1.3-0.2,1.9-0.2c1.1,0,2.1,0.1,2.9,0.4
			c0.8,0.3,1.5,0.6,2,1s0.9,1,1.1,1.6c0.2,0.6,0.4,1.3,0.4,2.1v16.5c0,1.1,0.1,2,0.4,2.8c0.3,0.8,0.7,1.4,1.3,1.8c0,0.1,0,0.3,0,0.5
			s0,0.3,0,0.4c0,2.3-0.6,4-1.7,5.1c-1.1,1.1-2.7,1.7-4.8,1.7c-0.9,0-1.8-0.1-2.7-0.4c-0.9-0.3-1.6-0.7-2.3-1.3s-1.2-1.4-1.6-2.5
			c-0.4-1.1-0.6-2.3-0.6-3.8V72C567.1,71.9,567.3,71.7,567.7,71.6z"/>
	</g>
	<g>
		<path d="M565.7,69.6c0.3-0.2,0.8-0.3,1.2-0.5s1-0.3,1.6-0.4s1.3-0.2,1.9-0.2c1.1,0,2.1,0.1,2.9,0.4c0.8,0.3,1.5,0.6,2,1
			s0.9,1,1.1,1.6c0.2,0.6,0.4,1.3,0.4,2.1v16.5c0,1.1,0.1,2,0.4,2.8c0.3,0.8,0.7,1.4,1.3,1.8c0,0.1,0,0.3,0,0.5s0,0.3,0,0.4
			c0,2.3-0.6,4-1.7,5.1c-1.1,1.1-2.7,1.7-4.8,1.7c-0.9,0-1.8-0.1-2.7-0.4c-0.9-0.3-1.6-0.7-2.3-1.3s-1.2-1.4-1.6-2.5
			c-0.4-1.1-0.6-2.3-0.6-3.8V70C565.1,69.9,565.3,69.7,565.7,69.6z"/>
	</g>
</g>
<g>
	<g>
		<path class="st2" d="M596.3,80.2c-0.4,0-0.9,0-1.3,0c-0.4,0-0.9-0.1-1.3-0.1c-0.4,0-0.8-0.1-1.2-0.2s-0.6-0.1-0.9-0.2
			c0,0-0.1,0.1-0.1,0.2s0,0.2,0,0.3c0,0.3,0.4,0.5,1.1,0.7c0.7,0.2,2,0.3,3.7,0.3c1,0,1.8,0,2.4-0.1c0.6-0.1,1.2-0.1,1.7-0.2
			c0.1,0.1,0.1,0.3,0.2,0.6c0.1,0.3,0.1,0.6,0.2,0.9c0.1,0.3,0.1,0.7,0.1,1s0,0.7,0,1c0,0.8-0.1,1.5-0.2,2.1
			c-0.1,0.6-0.3,1.1-0.6,1.5h-4.3v14.6c-0.5,0.3-1.1,0.6-1.6,0.8s-1.1,0.4-1.6,0.5s-1,0.2-1.5,0.2s-1.1,0.1-1.5,0.1
			c-0.9,0-1.7-0.1-2.5-0.2c-0.8-0.1-1.4-0.4-2-0.8s-1-0.8-1.3-1.3s-0.5-1.1-0.5-1.9V89h0.7c0.4,0,0.7-0.1,0.9-0.2s0.3-0.3,0.3-0.6
			c0-0.1,0-0.2,0-0.3h-3.9c-0.5-0.7-0.8-1.4-1-2.2s-0.3-1.6-0.3-2.4s0.1-1.7,0.3-2.7s0.6-1.8,1-2.5h2c0.2-1.3,0.5-2.4,1.1-3.4
			s1.2-1.8,2-2.5s1.8-1.2,2.9-1.5c1.1-0.3,2.3-0.5,3.7-0.5c1.1,0,2.1,0.1,3,0.3c0.9,0.2,1.7,0.4,2.4,0.7s1.3,0.6,1.8,0.9
			s0.9,0.6,1.2,1c0.1,0.2,0.1,0.4,0.1,0.6s0.1,0.4,0.1,0.7c0,0.2,0,0.4,0,0.6s0,0.3,0,0.4c0,0.9-0.1,1.6-0.2,2.3
			c-0.1,0.7-0.3,1.3-0.5,1.9c-0.5,0.2-1.1,0.3-1.9,0.5C598.2,80.3,597.3,80.2,596.3,80.2z"/>
	</g>
	<g>
		<path d="M594.3,78.2c-0.4,0-0.9,0-1.3,0c-0.4,0-0.9-0.1-1.3-0.1c-0.4,0-0.8-0.1-1.2-0.2s-0.6-0.1-0.9-0.2c0,0-0.1,0.1-0.1,0.2
			s0,0.2,0,0.3c0,0.3,0.4,0.5,1.1,0.7c0.7,0.2,2,0.3,3.7,0.3c1,0,1.8,0,2.4-0.1c0.6-0.1,1.2-0.1,1.7-0.2c0.1,0.1,0.1,0.3,0.2,0.6
			c0.1,0.3,0.1,0.6,0.2,0.9c0.1,0.3,0.1,0.7,0.1,1s0,0.7,0,1c0,0.8-0.1,1.5-0.2,2.1c-0.1,0.6-0.3,1.1-0.6,1.5h-4.3v14.6
			c-0.5,0.3-1.1,0.6-1.6,0.8s-1.1,0.4-1.6,0.5s-1,0.2-1.5,0.2s-1.1,0.1-1.5,0.1c-0.9,0-1.7-0.1-2.5-0.2c-0.8-0.1-1.4-0.4-2-0.8
			s-1-0.8-1.3-1.3s-0.5-1.1-0.5-1.9V87h0.7c0.4,0,0.7-0.1,0.9-0.2s0.3-0.3,0.3-0.6c0-0.1,0-0.2,0-0.3h-3.9c-0.5-0.7-0.8-1.4-1-2.2
			s-0.3-1.6-0.3-2.4s0.1-1.7,0.3-2.7s0.6-1.8,1-2.5h2c0.2-1.3,0.5-2.4,1.1-3.4s1.2-1.8,2-2.5s1.8-1.2,2.9-1.5
			c1.1-0.3,2.3-0.5,3.7-0.5c1.1,0,2.1,0.1,3,0.3c0.9,0.2,1.7,0.4,2.4,0.7s1.3,0.6,1.8,0.9s0.9,0.6,1.2,1c0.1,0.2,0.1,0.4,0.1,0.6
			s0.1,0.4,0.1,0.7c0,0.3,0,0.4,0,0.6s0,0.3,0,0.4c0,0.9-0.1,1.6-0.2,2.3c-0.1,0.7-0.3,1.3-0.5,1.9c-0.5,0.2-1.1,0.3-1.9,0.5
			C596.2,78.3,595.3,78.2,594.3,78.2z"/>
	</g>
</g>
<g class="st3">
	<g class="st4">
		<rect x="-1.4" y="-14.6" class="st5" width="262" height="70"/>
	</g>
	<g class="st4">
		<rect x="-2.4" y="-15.6" class="st6" width="262" height="70"/>
	</g>
</g>
<g class="st7">
	<g>
		<path class="st8" d="M20.4,2.7v3.6h-6.3v23.4H8.7V6.3H2.4V2.7H20.4 M20.4,0.7h-18c-1.1,0-2,0.9-2,2v3.6c0,1.1,0.9,2,2,2h4.3v21.4
			c0,1.1,0.9,2,2,2h5.4c1.1,0,2-0.9,2-2V8.3h4.3c1.1,0,2-0.9,2-2V2.7C22.4,1.6,21.5,0.7,20.4,0.7L20.4,0.7z"/>
	</g>
	<g>
		<path class="st8" d="M30.4,2.7v9.7h0.1c0.6-0.6,1.3-1.1,2-1.5c0.8-0.4,1.8-0.6,3.1-0.6c0.7,0,1.3,0.1,2,0.2
			c0.7,0.2,1.3,0.4,1.8,0.8c0.5,0.4,1,0.9,1.3,1.5c0.3,0.6,0.5,1.3,0.5,2.2v14.8h-5.4V16.4c0-0.7-0.2-1.3-0.7-1.7
			c-0.5-0.4-1.1-0.6-2-0.6c-1,0-1.7,0.2-2.1,0.7c-0.4,0.5-0.6,1.1-0.6,2v13H25V2.7H30.4 M30.4,0.7H25c-1.1,0-2,0.9-2,2v27.1
			c0,1.1,0.9,2,2,2h5.4c1.1,0,2-0.9,2-2v-13c0-0.3,0-0.5,0.1-0.6c0.1,0,0.3-0.1,0.6-0.1c0.4,0,0.6,0.1,0.6,0.1c0,0,0,0,0,0
			c0,0,0,0.1,0,0.2v13.3c0,1.1,0.9,2,2,2h5.4c1.1,0,2-0.9,2-2V15c0-1.2-0.2-2.2-0.7-3.1c-0.5-0.9-1.1-1.6-1.9-2.1
			c-0.7-0.5-1.6-0.9-2.5-1.1c-0.8-0.2-1.7-0.3-2.5-0.3c-1.2,0-2.3,0.2-3.2,0.5V2.7C32.4,1.6,31.5,0.7,30.4,0.7L30.4,0.7z"/>
	</g>
	<g>
		<path class="st8" d="M54.4,10.3c1.2,0,2.4,0.2,3.4,0.5c1,0.3,1.9,0.7,2.6,1.3c1.4,1.1,2.1,2.6,2.1,4.3v5.3H51.7v3.6
			c0,0.6,0.2,1.1,0.7,1.4c0.5,0.3,1.1,0.5,1.9,0.5c1,0,1.7-0.2,2-0.6c0.3-0.4,0.5-0.9,0.6-1.3h5.4c0,1.7-0.7,3.1-2.2,4.1
			c-0.7,0.5-1.6,0.9-2.6,1.3c-1,0.3-2.1,0.5-3.4,0.5c-1.7,0-3.1-0.3-4.3-0.8c-1.2-0.5-2.1-1.2-2.7-2c-0.4-0.5-0.7-1.1-0.8-1.7
			c-0.1-0.7-0.2-1.9-0.2-2.7v-6.8c0-0.8,0.1-1.5,0.2-2.2c0.1-0.7,0.4-1.2,0.8-1.7c0.6-0.8,1.6-1.5,2.7-2
			C51.2,10.5,52.7,10.3,54.4,10.3 M51.7,18.5H57v-2.2c0-0.7-0.2-1.3-0.7-1.7c-0.5-0.4-1.1-0.6-1.9-0.6c-0.8,0-1.5,0.2-1.9,0.6
			c-0.5,0.4-0.7,0.9-0.7,1.7V18.5 M62.4,25.2L62.4,25.2 M54.4,8.3c-2,0-3.7,0.3-5.1,0.9c-1.5,0.6-2.7,1.5-3.5,2.6
			c-0.6,0.7-1,1.6-1.2,2.5c-0.2,0.8-0.3,1.7-0.3,2.6v6.8c0,0.7,0.1,2.1,0.3,3.1c0.2,1,0.6,1.8,1.2,2.5c0.8,1.1,2,2,3.5,2.6
			c1.4,0.6,3.2,0.9,5.1,0.9c1.4,0,2.8-0.2,3.9-0.5c1.2-0.4,2.3-0.9,3.2-1.6c1.9-1.4,2.9-3.3,3-5.6c0,0,0-0.1,0-0.1
			c0-0.8-0.5-1.5-1.1-1.8c0.7-0.3,1.1-1,1.1-1.8v-5.3c0-2.3-1-4.3-2.9-5.9c0,0,0,0-0.1,0c-0.9-0.7-2-1.2-3.2-1.6
			C57.1,8.4,55.8,8.3,54.4,8.3L54.4,8.3z M53.7,16.2c0.1-0.1,0.3-0.1,0.7-0.1c0.3,0,0.5,0,0.7,0.1c0,0,0,0.1,0,0.1v0.2h-1.3v-0.2
			C53.7,16.3,53.7,16.3,53.7,16.2L53.7,16.2z M53.7,16.2L53.7,16.2L53.7,16.2L53.7,16.2z M53.7,23.6h2.1c-0.4,0.3-0.7,0.7-0.8,1.3
			c0,0,0,0.1-0.1,0.2c-0.1,0-0.3,0-0.6,0c-0.3,0-0.5,0-0.7-0.1L53.7,23.6L53.7,23.6z"/>
	</g>
	<g>
		<path class="st8" d="M85.6,2.5c1.1,0,2.2,0.1,3.3,0.4c1.1,0.3,2.1,0.7,3,1.2c0.9,0.6,1.5,1.3,2.1,2.1C94.4,7,94.7,8,94.7,9.1v1.4
			h-5.4V9.1c0-0.9-0.4-1.6-1.1-2.1c-0.7-0.4-1.6-0.7-2.6-0.7c-1,0-1.9,0.2-2.6,0.7c-0.7,0.4-1.1,1.1-1.1,2.1v14.3
			c0,0.9,0.4,1.6,1.1,2.1c0.7,0.4,1.6,0.7,2.6,0.7c1,0,1.9-0.2,2.6-0.7c0.7-0.4,1.1-1.1,1.1-2.1v-5.1h-4.3v-3.4h9.7v8.5
			c0,1.1-0.3,2.1-0.8,2.9c-0.5,0.8-1.2,1.5-2.1,2c-0.9,0.6-1.9,1-3,1.3c-1.1,0.3-2.2,0.4-3.3,0.4c-1.1,0-2.2-0.1-3.3-0.4
			c-1.1-0.3-2-0.7-2.9-1.3c-0.9-0.5-1.6-1.2-2.1-2c-0.5-0.8-0.8-1.8-0.8-2.9V9.1c0-1.1,0.3-2.1,0.8-2.9c0.5-0.8,1.2-1.5,2.1-2.1
			c0.9-0.5,1.8-0.9,2.9-1.2C83.4,2.6,84.5,2.5,85.6,2.5 M85.6,0.5c-1.3,0-2.5,0.2-3.8,0.5c-1.3,0.3-2.4,0.8-3.5,1.5
			c-1.1,0.7-2.1,1.6-2.8,2.7c-0.7,1.2-1.1,2.5-1.1,4v14.3c0,1.5,0.4,2.9,1.1,4c0.7,1.1,1.6,1.9,2.7,2.6c1,0.7,2.2,1.2,3.5,1.5
			c1.2,0.3,2.5,0.5,3.8,0.5c1.3,0,2.5-0.2,3.8-0.5c1.3-0.3,2.5-0.8,3.5-1.5c1.1-0.7,2-1.6,2.7-2.6c0.7-1.1,1.1-2.5,1.1-4v-8.5
			c0-1.1-0.9-2-2-2h-9.7c-0.4,0-0.7,0.1-1,0.3V9.1c0-0.3,0-0.3,0.1-0.4c0.4-0.3,0.9-0.4,1.5-0.4c0.6,0,1.1,0.1,1.5,0.4
			c0.1,0.1,0.1,0.1,0.1,0.4v1.4c0,1.1,0.9,2,2,2h5.4c1.1,0,2-0.9,2-2V9.1c0-1.5-0.4-2.8-1.1-4c-0.7-1.1-1.6-2-2.7-2.7c0,0,0,0-0.1,0
			c-1-0.6-2.2-1.1-3.5-1.4C88.1,0.6,86.8,0.5,85.6,0.5L85.6,0.5z M85.6,24.1c-0.6,0-1.1-0.1-1.5-0.4c-0.1-0.1-0.1-0.1-0.1-0.4V20
			c0.3,0.2,0.7,0.3,1,0.3h2.3v3.1c0,0.3,0,0.3-0.1,0.4C86.7,24,86.2,24.1,85.6,24.1L85.6,24.1z"/>
	</g>
	<g>
		<path class="st8" d="M126,2.7v21.6c0,0.7,0.2,1.2,0.6,1.5c0.4,0.3,1.1,0.4,2.1,0.5V30c-1.2,0-2.4-0.1-3.4-0.2
			c-1-0.1-1.8-0.4-2.6-0.8c-0.7-0.4-1.2-0.9-1.6-1.6c-0.4-0.7-0.6-1.6-0.6-2.8V2.7H126 M126,0.7h-5.4c-1.1,0-2,0.9-2,2v21.9
			c0,1.5,0.3,2.7,0.8,3.7c0.6,1,1.4,1.9,2.4,2.4c0.9,0.5,2,0.9,3.2,1c1.1,0.2,2.3,0.2,3.6,0.2c1.1,0,2-0.9,2-2v-3.6
			c0-1-0.8-1.9-1.9-2c-0.4,0-0.6-0.1-0.8-0.1V2.7C128,1.6,127.1,0.7,126,0.7L126,0.7z"/>
	</g>
	<g>
		<path class="st8" d="M143.6,2.7v3.6h-2.4c-1.1,0-1.6,0.4-1.6,1.3v2.8h4v3h-4v16.2h-5.4V13.5h-2.7v-3h2.7V7.9
			c0-0.9,0.2-1.7,0.6-2.4c0.4-0.6,0.9-1.2,1.6-1.6c0.6-0.4,1.4-0.7,2.2-0.9c0.8-0.2,1.7-0.3,2.6-0.3H143.6 M143.6,0.7h-2.5
			c-1,0-2,0.1-3,0.3c-1.1,0.2-2.1,0.6-2.9,1.2c-0.9,0.6-1.6,1.3-2.2,2.2c-0.6,1-0.9,2.1-0.9,3.4v0.6h-0.7c-1.1,0-2,0.9-2,2v3
			c0,1.1,0.9,2,2,2h0.7v14.2c0,1.1,0.9,2,2,2h5.4c1.1,0,2-0.9,2-2V15.5h2c1.1,0,2-0.9,2-2v-3c0-1.1-0.9-2-2-2h-2V8.3h2
			c1.1,0,2-0.9,2-2V2.7C145.6,1.6,144.7,0.7,143.6,0.7L143.6,0.7z"/>
	</g>
	<g>
		<path class="st8" d="M165.1,2.5c1.3,0,2.6,0.2,3.7,0.5c1.1,0.4,2.1,0.8,2.9,1.4c1.6,1.2,2.4,2.6,2.4,4.2v1.9h-5.4V9.6
			c0-0.9-0.3-1.7-0.9-2.3c-0.6-0.6-1.6-1-3-1c-0.7,0-1.3,0.1-1.8,0.3c-0.5,0.2-0.8,0.5-1.1,0.8c-0.3,0.3-0.5,0.7-0.6,1.1
			c-0.1,0.4-0.2,0.9-0.2,1.3c0,0.5,0,1,0.1,1.3c0.1,0.4,0.2,0.7,0.4,1c0.2,0.3,0.5,0.5,0.9,0.7c0.4,0.2,1,0.4,1.7,0.6l4.2,1.2
			c1.2,0.3,2.2,0.7,2.9,1.2c0.7,0.4,1.3,1,1.8,1.5c0.4,0.6,0.7,1.3,0.8,2.1c0.1,0.8,0.2,1.7,0.2,2.6c0,1.1-0.2,2.2-0.5,3.2
			c-0.3,1-0.8,1.8-1.5,2.5c-0.7,0.7-1.7,1.3-2.9,1.7s-2.7,0.6-4.4,0.6c-1.3,0-2.5-0.2-3.7-0.5c-1.1-0.3-2.1-0.8-2.9-1.4
			c-0.8-0.6-1.5-1.3-1.9-2c-0.5-0.8-0.7-1.6-0.7-2.5v-1.4h5.4v1.2c0,0.7,0.3,1.3,0.9,1.9c0.6,0.6,1.6,0.9,3,0.9
			c0.9,0,1.6-0.1,2.2-0.3c0.5-0.2,0.9-0.5,1.2-0.8c0.3-0.4,0.5-0.8,0.5-1.3c0.1-0.5,0.1-1,0.1-1.7c0-0.7,0-1.3-0.1-1.7
			c-0.1-0.5-0.2-0.8-0.4-1.1c-0.2-0.3-0.6-0.5-1-0.7c-0.4-0.2-0.9-0.4-1.6-0.6l-3.9-1.1c-2.3-0.7-3.9-1.6-4.7-2.7
			c-0.8-1.1-1.2-2.5-1.2-4.2c0-1,0.2-2,0.6-2.9c0.4-0.9,1-1.7,1.8-2.4c0.7-0.7,1.7-1.2,2.8-1.6C162.1,2.7,163.5,2.5,165.1,2.5
			 M165.1,0.5c-1.8,0-3.4,0.2-4.8,0.7c-1.4,0.5-2.6,1.1-3.5,2c-1,0.8-1.8,1.9-2.3,3.1c-0.5,1.2-0.7,2.4-0.7,3.7
			c0,2.1,0.5,3.9,1.6,5.4c1.1,1.5,3,2.7,5.8,3.5l3.9,1.1c0.6,0.2,1.1,0.3,1.4,0.5c0.1,0,0.2,0.1,0.2,0.1c0,0,0,0.1,0,0.2
			c0,0.2,0.1,0.7,0.1,1.4c0,0.5,0,1-0.1,1.4c0,0.2-0.1,0.2-0.1,0.2c0,0.1-0.2,0.1-0.3,0.2c-0.1,0-0.5,0.2-1.5,0.2
			c-1.2,0-1.6-0.3-1.6-0.3c-0.3-0.3-0.3-0.4-0.3-0.5v-1.2c0-1.1-0.9-2-2-2h-5.4c-1.1,0-2,0.9-2,2v1.4c0,1.3,0.3,2.5,1,3.6
			c0.6,1,1.5,1.9,2.5,2.6c1,0.7,2.2,1.3,3.5,1.7c1.3,0.4,2.7,0.6,4.2,0.6c1.9,0,3.6-0.2,5.1-0.7c1.5-0.5,2.7-1.2,3.7-2.1
			c1-0.9,1.6-2,2.1-3.3c0.4-1.2,0.6-2.4,0.6-3.8c0-1.1-0.1-2.1-0.2-3c-0.2-1-0.6-2-1.1-2.8c0,0,0-0.1-0.1-0.1
			c-0.6-0.8-1.4-1.5-2.3-2.1c-0.9-0.5-2-1-3.4-1.4l-4.1-1.2c-0.7-0.2-1.1-0.4-1.3-0.5c-0.2-0.1-0.2-0.1-0.2-0.2
			c0-0.2-0.1-0.5-0.1-1.1c0-0.3,0-0.6,0.1-0.8c0-0.1,0.1-0.2,0.1-0.3c0.1-0.1,0.2-0.2,0.4-0.3c0.1,0,0.4-0.1,1-0.1
			c0.9,0,1.4,0.2,1.5,0.3c0.3,0.3,0.4,0.6,0.4,1v0.9c0,1.1,0.9,2,2,2h5.4c1.1,0,2-0.9,2-2V8.6c0-1.5-0.6-3.8-3.3-5.8
			c-1-0.7-2.2-1.3-3.5-1.7C168.1,0.7,166.6,0.5,165.1,0.5L165.1,0.5z"/>
	</g>
	<g>
		<path class="st8" d="M184.3,2.7v9.7h0.1c0.6-0.6,1.3-1.1,2-1.5c0.8-0.4,1.8-0.6,3.1-0.6c0.7,0,1.3,0.1,2,0.2
			c0.7,0.2,1.3,0.4,1.8,0.8c0.5,0.4,1,0.9,1.3,1.5c0.3,0.6,0.5,1.3,0.5,2.2v14.8h-5.4V16.4c0-0.7-0.2-1.3-0.7-1.7
			c-0.5-0.4-1.1-0.6-2-0.6c-1,0-1.7,0.2-2.1,0.7c-0.4,0.5-0.6,1.1-0.6,2v13h-5.4V2.7H184.3 M184.3,0.7h-5.4c-1.1,0-2,0.9-2,2v27.1
			c0,1.1,0.9,2,2,2h5.4c1.1,0,2-0.9,2-2v-13c0-0.3,0-0.5,0.1-0.6c0.1,0,0.3-0.1,0.6-0.1c0.4,0,0.6,0.1,0.6,0.1c0,0,0,0,0,0
			c0,0,0,0.1,0,0.2v13.3c0,1.1,0.9,2,2,2h5.4c1.1,0,2-0.9,2-2V15c0-1.2-0.2-2.2-0.7-3.1c-0.5-0.9-1.1-1.6-1.9-2.1
			c-0.7-0.5-1.6-0.9-2.5-1.1c-0.8-0.2-1.7-0.3-2.5-0.3c-1.2,0-2.3,0.2-3.2,0.5V2.7C186.3,1.6,185.4,0.7,184.3,0.7L184.3,0.7z"/>
	</g>
	<g>
		<path class="st8" d="M232,10.3c2.2,0,3.8,0.6,4.7,1.8c0.3,0.4,0.5,1,0.7,1.6c0.1,0.6,0.2,1.5,0.2,2.5v7.3c0,1.4-0.1,2.4-0.2,3.1
			c-0.2,1.3-1,2.2-2.4,2.9c-0.7,0.3-1.7,0.5-3.1,0.5c-1.1,0-2-0.2-2.8-0.5c-0.8-0.3-1.6-0.8-2.2-1.5h-0.1v9.5h-5.4V10.5h5.4v1.7
			c0.7-0.6,1.4-1,2.1-1.4C229.6,10.4,230.6,10.3,232,10.3 M229.5,26.1c1,0,1.7-0.2,2.1-0.7c0.4-0.5,0.6-1,0.6-1.6v-7.1
			c0-0.8-0.2-1.4-0.6-1.9c-0.4-0.5-1.1-0.7-2-0.7c-0.8,0-1.5,0.2-2,0.7c-0.5,0.4-0.7,1-0.7,1.7V24c0,0.6,0.3,1.1,0.8,1.5
			C228.1,25.9,228.8,26.1,229.5,26.1 M232,8.3c-1.6,0-2.9,0.2-3.9,0.7c-0.4-0.3-0.8-0.5-1.3-0.5h-5.4c-1.1,0-2,0.9-2,2v27.1
			c0,1.1,0.9,2,2,2h5.4c1.1,0,2-0.9,2-2v-6c0.9,0.3,2,0.5,3.1,0.5c1.7,0,2.9-0.2,3.9-0.7c2.5-1.1,3.4-3,3.6-4.3
			c0.1-0.7,0.2-1.9,0.2-3.4v-7.3c0-1.2-0.1-2.2-0.3-3c-0.2-0.9-0.6-1.7-1-2.3C237,9.1,234.9,8.3,232,8.3L232,8.3z M228.8,23.9l0-7.4
			c0-0.2,0-0.2,0.1-0.2c0.1-0.1,0.3-0.2,0.6-0.2c0.3,0,0.5,0.1,0.6,0.1c0.1,0.1,0.1,0.4,0.1,0.5v7.1c0,0.1,0,0.2,0,0.2
			c-0.1,0-0.3,0.1-0.6,0.1C229.2,24.1,229,24,228.8,23.9L228.8,23.9z"/>
	</g>
</g>
<g id="CrcJDg.tif_2_">
	<g>
		<g>
			<path d="M107.9,10.3c0.7,0,1.4,0.1,2.2,0.2c0,0,0.1,0,0.1,0c0,0-0.1,0-0.1,0c0,0,0,0,0,0c0,0,0,0,0,0c0.3,0.1,0.5,0.2,0.8,0.1
				c0.1,0,0.3,0.1,0.5,0.2c0,0,0,0-0.1,0c-0.3-0.1-0.7-0.2-1-0.2c-0.6,0.1-1.3-0.2-1.9,0.1c-0.1,0-0.2,0-0.3,0c-0.4,0-0.8,0-1.1,0.3
				c-0.1,0.1-0.3,0.1-0.5,0.1c-0.3,0-0.6,0.1-0.8,0.3c-0.2,0.3-0.5,0.3-0.8,0.3c-0.4,0.1-0.5,0.3-0.7,0.6c-0.1,0.1,0,0.2,0.1,0.2
				c0.1,0.1,0.2,0.1,0.3,0.1c0.3-0.2,0.7-0.5,0.9-0.8c0.1-0.1,0.2-0.1,0.3,0c0.1,0.1,0,0.2,0,0.3c-0.2,0.3-0.5,0.5-0.8,0.6
				c-0.3,0-0.5,0.2-0.6,0.5c-0.1,0.3-0.4,0.6-0.8,0.7c-0.4,0.1-0.5,0.4-0.6,0.7c-0.1,0.2-0.2,0.4-0.4,0.5c-0.4,0.2-0.6,0.5-0.7,1
				c0,0.4-0.4,0.6-0.7,0.8c-0.4,0.3-0.4,1.2,0,1.3c0.1,0,0.2,0,0.2-0.1c0.1-0.4,0.3-0.9,0.3-1.4c0-0.1,0-0.2,0.1-0.2
				c0.2,0.1,0.3,0.2,0.4,0.4c0.1,0.6-0.2,1.1-0.7,1.3c-0.1,0-0.1,0.1-0.1,0.2c0,0.1,0,0.2,0,0.4c0,0.4-0.1,0.7-0.5,1
				c-0.4,0.2-0.3,1.1,0.1,1.2c0.5,0.2,0.3,0.6,0.4,1c0,0.2,0.1,0.2,0.2,0.3c0.6,0.2,0.7,0.4,0.7,1c0,0.2-0.2,0.3-0.4,0.3
				c-0.1,0-0.2-0.1-0.2-0.2c0-0.4-0.2-0.7-0.3-1c0-0.1-0.1-0.1-0.2-0.1c-0.1,0.1-0.3,0.1-0.3,0.3c0,0.5,0.1,0.9,0.7,1
				c0.1,0,0.2,0.1,0.2,0.3c0,0.5,0.2,0.9,0.7,1.1c0.1,0.1,0.2,0.2,0.2,0.3c-0.1,0.5,0.2,0.8,0.5,1c0.2,0.1,0.2,0.3,0.2,0.5
				c-0.1,0.2,0,0.4,0.2,0.5c0.1,0.1,0.3,0.2,0.4,0.3c0.1,0.1,0.1,0.1,0.1,0.3c-0.1,0.3,0.3,0.8,0.8,0.8c0.1,0,0.4,0.1,0.4-0.1
				c0.1-0.1-0.2-0.2-0.2-0.3c-0.2-0.2-0.3-0.4-0.6-0.5c0,0,0,0-0.1-0.1c0,0,0-0.1,0.1-0.1c0.5-0.2,1.1,0.3,1.1,0.8
				c0,0.1,0,0.2,0.1,0.2c0.1,0.1,0.3,0.1,0.4,0.2c0.2,0.1,0.3,0.2,0.3,0.4c0,0.1,0,0.1,0.1,0.2c0.4,0.1,0.7,0.3,1.1,0.2
				c0.4-0.1,0.8,0,1.2,0.1c0,0,0.1,0.1,0.1,0.1c0,0.3,0.2,0.2,0.3,0.2c0.7,0.1,1.3-0.4,1.9-0.3c0.2,0,0.4,0.1,0.6,0c0,0,0,0,0,0
				c-0.2,0.1-0.5,0.3-0.7,0.2c-0.3-0.2-0.5-0.1-0.8,0c-0.2,0-0.4,0.1-0.4,0.2c0,0.1,0.3,0,0.4,0c0,0,0.1,0,0.1,0c0.1,0,0.2,0,0.3,0
				c-0.1,0-0.2,0.1-0.3,0.1c-0.2,0.1-0.5,0.1-0.7,0.1c-1.8,0.2-3.6,0.1-5.3-0.6c-2.2-0.9-4-2.3-5.1-4.5c-0.2-0.5-0.4-1-0.5-1.5
				c0,0,0-0.2,0-0.2c0.1,0,0.1,0.1,0.1,0.1c0.3,0.4,0.4,0.8,0.4,1.2c0,0.1,0,0.2,0.1,0.2c0.1,0,0-0.1,0-0.2c0-0.2-0.1-0.3-0.1-0.5
				c-0.1-0.3-0.3-0.6-0.1-1c0.1-0.1,0-0.3,0-0.5c-0.1-0.3-0.1-0.7,0.1-1c0.1-0.2,0-0.4,0-0.6c0-0.2,0-0.4,0.2-0.6
				c0.3-0.3,0.3-1.1,0-1.3c-0.3-0.2-0.2-0.5-0.1-0.7c0-0.3,0-0.5-0.2-0.7c-0.2-0.1,0-0.3,0-0.5c0.1-0.3,0.2-0.5-0.1-0.8
				c0,0,0-0.1,0-0.2c0.1-0.2,0.2-0.4,0.2-0.7c0-0.1,0-0.3-0.1-0.3c-0.1-0.1-0.1,0.1-0.2,0.2c0,0-0.1,0.1-0.1,0.1c0-0.1,0-0.1,0-0.2
				c0-0.2,0.1-0.3,0.2-0.5c0,0,0.1,0,0.1,0c0,0,0,0.1,0,0.1c0,0,0,0.1,0,0.1c0,0,0.1-0.1,0.1-0.1c0.1-0.5,0.3-1,0.7-1.4
				c0,0,0.1-0.1,0.1-0.1c0,0,0,0.1,0,0.1c0,0,0,0.1,0,0.1c0,0,0.1-0.1,0.1-0.1c0.8-1.7,2.2-2.5,3.8-3.2
				C105,10.6,106.4,10.2,107.9,10.3z M102.9,13.7c0,0.1,0.1,0.2,0.2,0.3c0,0,0.1,0,0.1,0c0.3-0.3,0.6-0.6,0.8-1
				c0-0.1,0.1-0.1-0.1-0.2C103.5,12.8,102.9,13.4,102.9,13.7z M101.7,15.1c0,0.1,0.1,0.2,0.1,0.2c0.1,0,0.2,0,0.2-0.1
				c0.2-0.3,0.3-0.7,0.5-1c0,0,0-0.1,0-0.1c0,0-0.1,0-0.1,0C102,14.3,101.8,14.6,101.7,15.1z M100.1,19.3c0,0.2,0,0.4,0.2,0.4
				c0.2,0,0.2-0.2,0.2-0.3c0.1-0.2,0.1-0.5,0.1-0.7c0,0,0-0.1,0-0.1c0,0-0.1,0-0.1,0C100.2,18.7,100.2,19,100.1,19.3z M102,26
				c0.2,0,0.2,0,0.2-0.2c-0.1-0.3-0.2-0.5-0.4-0.7c-0.1-0.1-0.1-0.1-0.2,0c-0.1,0.1-0.2,0.2-0.1,0.3C101.6,25.6,101.7,25.9,102,26z
				 M102.5,27.2c0.1,0,0.1,0,0.1-0.1c-0.1-0.3-0.3-0.6-0.5-0.8c-0.1-0.1-0.2-0.1-0.2,0.1C101.8,26.6,102.3,27.2,102.5,27.2z
				 M107.9,30.4c0.2,0,0.3-0.1,0.5-0.1c0,0,0.1,0,0.1,0c0,0,0-0.1-0.1-0.1c-0.4-0.2-0.8-0.2-1.2-0.2c-0.1,0-0.1,0-0.1,0.1
				c0,0.1,0,0.1,0.1,0.1C107.4,30.3,107.7,30.3,107.9,30.4z M105.6,29.7c0.1,0,0.2,0,0.2-0.1c0-0.1-0.1-0.2-0.2-0.2
				c-0.2-0.1-0.5-0.2-0.7-0.3c-0.1,0-0.2-0.1-0.2,0.1c0,0.1,0,0.2,0.1,0.2C105,29.5,105.3,29.7,105.6,29.7z M100.7,16.4
				c0,0.1,0,0.2,0.1,0.2c0.1,0,0.1-0.1,0.2-0.1c0.1-0.3,0.2-0.6,0.4-0.8c0,0,0-0.1,0-0.1c0,0-0.1,0-0.1,0
				C100.9,15.8,100.8,16.1,100.7,16.4z M100.5,22.1c0-0.2,0-0.4-0.1-0.6c0-0.1,0-0.1-0.1-0.2c-0.1,0-0.1,0.1-0.2,0.1
				c-0.1,0.3-0.1,0.5,0.1,0.8c0,0.1,0.1,0.1,0.2,0.1C100.5,22.3,100.5,22.2,100.5,22.1z M100,21.9c0-0.1,0-0.2-0.1-0.4
				c0,0,0-0.1-0.1-0.1c0,0-0.1,0.1-0.1,0.1c-0.1,0.2-0.1,0.4-0.1,0.6c0,0.1-0.1,0.3,0,0.3c0.2,0,0.3-0.2,0.3-0.3
				C100,22.1,100,22.1,100,21.9z M100.6,24.3c0,0.2,0.1,0.4,0.3,0.6c0,0,0.1,0,0.1,0c0,0,0-0.1,0-0.1c-0.1-0.2-0.1-0.4-0.2-0.6
				c0-0.1-0.1-0.2-0.2-0.1C100.6,24.1,100.6,24.2,100.6,24.3z M100.1,19c0-0.2-0.1-0.3-0.2-0.5c0,0-0.1,0-0.1,0c0,0,0,0.1,0,0.1
				c0,0.3,0.1,0.6,0.1,0.9c0,0,0,0.1,0.1,0.1c0,0,0.1-0.1,0.1-0.1C100,19.3,100.1,19.1,100.1,19z M99.4,23.7c0,0.1,0,0.3,0.1,0.3
				c0.1,0,0.1-0.1,0.2-0.2c0.1-0.3,0-0.5-0.1-0.7c0,0,0,0,0-0.1c0,0-0.1,0.1-0.1,0.1C99.5,23.2,99.5,23.5,99.4,23.7z M107.5,10.8
				c0.2,0,0.4-0.1,0.6-0.1c0,0,0.1-0.1,0.1-0.1c0,0-0.1-0.1-0.1-0.1c-0.2,0-0.4,0-0.7,0c-0.1,0-0.3,0-0.3,0.1
				C107.2,10.8,107.4,10.8,107.5,10.8z M103,28.2c0.1,0,0.2-0.1,0.1-0.1c-0.1-0.2-0.3-0.4-0.5-0.5c-0.1-0.1-0.1,0-0.1,0.1
				C102.6,28,102.8,28.1,103,28.2z M99.6,17.8c0,0.1,0,0.1,0.1,0.2c0,0,0.1,0,0.1,0c0.1-0.2,0.2-0.5,0-0.7c0-0.1-0.1-0.1-0.1-0.1
				c-0.1,0-0.1,0.1-0.1,0.2C99.5,17.4,99.6,17.6,99.6,17.8z M106.5,10.8c-0.2,0-0.5,0-0.7,0.2c0,0,0,0.1-0.1,0.1
				c0,0,0.1,0.1,0.1,0.1c0.2,0,0.5-0.1,0.7-0.2c0,0,0.1,0,0.1-0.1C106.7,10.8,106.6,10.8,106.5,10.8z M108.7,30.4
				c-0.2,0-0.3,0-0.5,0c0,0-0.1,0-0.1,0.1c0,0,0.1,0.1,0.1,0.1c0.2,0,0.3,0,0.5,0c0.2,0,0.3,0,0.5-0.1
				C109,30.3,108.9,30.4,108.7,30.4z M106.3,30.2c0.1,0,0.1,0,0.2-0.1c0,0,0-0.1-0.1-0.1c-0.2-0.1-0.5-0.2-0.7-0.2
				c0,0-0.1,0-0.1,0.1c0,0.1,0,0.1,0.1,0.1C105.9,30.1,106.1,30.2,106.3,30.2z M109,10.4C109,10.4,109,10.4,109,10.4
				c-0.1,0-0.1,0-0.2,0c-0.1,0-0.1,0-0.2,0.1c0.1,0,0.1,0.1,0.2,0.1c0.3,0.1,0.5,0.1,0.8,0c0,0,0.1,0,0.1-0.1c0,0-0.1-0.1-0.1-0.1
				C109.3,10.5,109.2,10.5,109,10.4z M104.6,11.8c0.2-0.1,0.4-0.2,0.5-0.3c0,0,0-0.1,0-0.1c0,0,0,0-0.1,0c-0.2,0-0.4,0.1-0.6,0.3
				c0,0-0.1,0.1,0,0.1C104.5,11.7,104.5,11.7,104.6,11.8z M100.6,20.5c0-0.1,0-0.3-0.1-0.3c-0.1,0-0.1,0.2-0.1,0.3
				c0,0.1-0.1,0.3,0.1,0.3C100.6,20.8,100.5,20.6,100.6,20.5z M99.8,25.2c0-0.3-0.1-0.5-0.2-0.7c0,0,0,0-0.1-0.1c0,0,0,0.1,0,0.1
				c0,0.2,0.1,0.5,0.2,0.7C99.7,25.2,99.7,25.2,99.8,25.2C99.8,25.2,99.8,25.2,99.8,25.2z M99.8,16.2c0-0.1,0-0.2-0.1-0.2
				c-0.1,0-0.1,0.1-0.1,0.2c0,0.2,0,0.4-0.1,0.5c0,0,0,0.1,0,0.1c0,0,0.1,0,0.1-0.1C99.7,16.5,99.7,16.3,99.8,16.2z M99.9,14.9
				c0-0.1-0.1-0.1-0.1-0.1c0,0-0.1,0-0.1,0.1c-0.1,0.2-0.1,0.4-0.2,0.6c0,0,0,0,0,0c0,0,0,0,0,0C99.7,15.4,99.8,15.2,99.9,14.9z
				 M103.2,12.5c0.2-0.1,0.3-0.2,0.3-0.3c0,0,0,0,0,0C103.4,12.2,103.2,12.3,103.2,12.5C103.2,12.5,103.2,12.5,103.2,12.5z
				 M103.7,29c-0.1-0.1-0.2-0.1-0.3-0.2c0,0-0.1,0-0.1,0.1c0,0.1,0.1,0.2,0.2,0.2C103.6,29,103.7,29,103.7,29z M106.9,30.5
				c0,0,0.1,0,0.1,0c-0.1-0.1-0.2-0.1-0.3-0.1c0,0-0.1,0-0.1,0C106.6,30.5,106.8,30.5,106.9,30.5z M100.2,26.6
				C100.2,26.6,100.3,26.5,100.2,26.6c0-0.1,0-0.1,0-0.1c-0.1-0.1-0.1-0.2-0.2-0.3c0,0.1,0.1,0.2,0.1,0.3
				C100.2,26.4,100.2,26.5,100.2,26.6z M99.9,26.6c-0.1-0.1-0.1-0.2-0.2-0.3c0,0,0,0,0,0C99.7,26.4,99.7,26.6,99.9,26.6
				C99.8,26.6,99.9,26.6,99.9,26.6z"/>
			<path d="M101.9,20.5c0.1,0.3-0.1,0.6-0.4,0.7c-0.1,0-0.2,0-0.2-0.1c0.1-0.4,0.1-0.7,0-1.1c0-0.1,0-0.1,0.1-0.2c0.1,0,0.1,0,0.2,0
				C101.9,20,102,20.2,101.9,20.5z"/>
			<path d="M103.2,15.8c0,0.5-0.1,0.9-0.6,1.1c-0.1,0-0.1,0-0.2,0c0-0.1,0-0.1,0-0.2c0.2-0.4,0.3-0.8,0.4-1.1c0-0.1,0.1-0.2,0.1-0.1
				C103.1,15.5,103.1,15.7,103.2,15.8z"/>
			<path d="M103.1,24.7c0,0.1,0,0.3-0.2,0.3c-0.1,0-0.2-0.1-0.2-0.2c-0.1-0.3-0.2-0.5-0.4-0.7c0-0.1-0.1-0.1,0-0.2
				c0.1-0.1,0.1,0,0.2,0C102.9,24,103.1,24.3,103.1,24.7z"/>
			<path d="M104.3,14.5c-0.1,0.4-0.3,0.7-0.6,0.9c0,0-0.1,0-0.1,0c-0.1,0,0-0.1,0-0.2c0.2-0.2,0.3-0.5,0.5-0.8
				c0-0.1,0.1-0.2,0.2-0.1C104.3,14.2,104.3,14.3,104.3,14.5z"/>
			<path d="M99.1,20.1c-0.1,0.3-0.1,0.6,0,0.9c0,0.1,0,0.1-0.1,0.2c-0.1,0-0.1,0-0.2-0.1c-0.2-0.2-0.2-0.8,0-1
				c0-0.1,0.1-0.2,0.2-0.1C99,19.9,99,20,99.1,20.1z"/>
			<path d="M104.6,27.3c0,0.2,0,0.3-0.1,0.3c-0.1,0-0.2,0-0.2-0.1c-0.1-0.2-0.3-0.5-0.4-0.7c0-0.1,0.1-0.1,0.2-0.1
				C104.4,26.8,104.6,27,104.6,27.3z"/>
			<path d="M103.9,26.1c0,0.1,0,0.2-0.1,0.3c-0.1,0-0.2-0.1-0.2-0.2c-0.1-0.3-0.2-0.5-0.3-0.7c0,0-0.1-0.1,0-0.1c0,0,0.1,0,0.1,0
				C103.7,25.5,103.9,25.7,103.9,26.1z"/>
			<path d="M102.7,19c0,0.1,0,0.2-0.1,0.3c-0.1,0.2-0.1,0.4-0.3,0.3c-0.2,0,0-0.2,0-0.3c0-0.2,0-0.4,0-0.6c0-0.1,0-0.2,0.1-0.2
				c0.1,0,0.2,0,0.2,0.1C102.6,18.8,102.7,18.9,102.7,19z"/>
			<path d="M106.2,12.1c-0.1,0-0.2,0-0.2-0.1c0-0.1,0.1-0.1,0.2-0.1c0.3-0.1,0.6-0.2,0.8-0.3c0.1-0.1,0.2-0.1,0.3,0
				c0.1,0.1,0,0.1-0.1,0.2C106.9,12.1,106.6,12.1,106.2,12.1z"/>
			<path d="M107,29.2c0.2,0,0.5,0.1,0.7,0.2c0.1,0.1,0.2,0.2,0.1,0.3c-0.1,0.1-0.2,0-0.2,0c-0.2-0.1-0.5-0.3-0.8-0.3
				c0,0-0.1,0-0.1-0.1c0,0,0.1,0,0.1-0.1C106.9,29.2,106.9,29.2,107,29.2z"/>
			<path d="M102.7,22c0,0.1,0,0.3-0.2,0.3c-0.2,0-0.1-0.2-0.1-0.3c0-0.1-0.1-0.3-0.1-0.4c0-0.1,0-0.1,0-0.2c0.1,0,0.1,0,0.2,0
				C102.7,21.6,102.7,21.8,102.7,22z"/>
			<path d="M98.7,23.3c0,0.1,0.1,0.3-0.1,0.3c-0.1,0-0.1-0.2-0.2-0.3c-0.1-0.2-0.1-0.4,0-0.6c0,0,0.1-0.1,0.1-0.1
				c0,0,0.1,0.1,0.1,0.1C98.7,22.8,98.7,23,98.7,23.3z"/>
			<path d="M104.9,14.1C104.8,14.1,104.8,14.1,104.9,14.1c-0.1-0.1-0.1-0.1,0-0.1c0.2-0.2,0.4-0.4,0.7-0.6c0,0,0.1-0.1,0.2,0
				c0,0,0.1,0.1,0,0.1C105.5,13.8,105.2,14,104.9,14.1z"/>
			<path d="M98.4,21.7c0-0.1,0-0.1,0-0.1c0-0.1,0-0.3,0.2-0.4c0,0,0.1,0,0.1,0c0.1,0.1,0,0.2,0,0.4c0,0.1,0,0.3-0.1,0.4
				c0,0,0,0.1-0.1,0.1c0,0-0.1-0.1-0.1-0.1C98.4,21.9,98.4,21.8,98.4,21.7z"/>
			<path d="M98.3,18.3c0-0.1,0.1-0.3,0.1-0.5c0,0,0.1-0.1,0.1-0.1c0,0,0.1,0,0.1,0.1c0,0.2,0.1,0.4,0.1,0.6c0,0.1,0,0.3-0.2,0.2
				C98.3,18.6,98.3,18.5,98.3,18.3z"/>
			<path d="M98.4,19.4c0.1-0.2,0-0.4,0.2-0.4c0.1,0,0.1,0.3,0.1,0.4c0,0.1,0,0.2,0.1,0.2c0,0.1,0,0.3-0.1,0.3
				c-0.1,0-0.2-0.1-0.2-0.2C98.4,19.5,98.4,19.5,98.4,19.4z"/>
			<path d="M107.9,11.6c-0.1,0-0.3,0-0.4-0.1c0.1-0.1,0.3-0.1,0.4-0.1c0.2,0,0.4-0.1,0.6-0.2c0.1,0,0.2,0,0.2,0
				c0,0.1-0.1,0.1-0.1,0.1C108.4,11.6,108.1,11.6,107.9,11.6z"/>
			<path d="M98.8,16.7c0,0.2-0.1,0.4-0.2,0.6c0,0-0.1,0.1-0.1,0.1c0,0-0.1-0.1-0.1-0.1c0-0.2,0.1-0.4,0.2-0.6c0-0.1,0-0.2,0.1-0.1
				C98.8,16.5,98.8,16.6,98.8,16.7z"/>
			<path d="M109.2,11.2c0.2,0,0.4-0.1,0.7-0.1c0.1,0,0.1,0,0.1,0.1c0,0-0.1,0.1-0.1,0.1c-0.4,0.2-0.7,0-1.1,0c-0.1,0,0-0.1,0-0.1
				C109,11.2,109.1,11.2,109.2,11.2z"/>
			<path d="M106.3,28.2c0.2,0.1,0.4,0.2,0.6,0.4c0,0.1,0,0.1,0,0.2c-0.1,0.1-0.1,0-0.1,0c-0.2-0.1-0.3-0.3-0.5-0.4
				C106.3,28.4,106.2,28.3,106.3,28.2C106.3,28.3,106.3,28.3,106.3,28.2z"/>
			<path d="M103.2,17.9c0-0.1,0-0.2,0.1-0.3c0-0.1,0-0.2,0.1-0.2c0.1,0,0.1,0.1,0.1,0.2c0,0.1,0,0.3-0.1,0.4c0,0-0.1,0.1-0.2,0.1
				C103.2,18,103.2,17.9,103.2,17.9z"/>
			<path d="M109.9,29.7c0.1,0.1,0.4-0.1,0.4,0.1c0,0.2-0.3,0-0.4,0c-0.2,0-0.5,0-0.7,0c0,0,0,0-0.1,0c0,0,0,0,0.1,0
				C109.4,29.8,109.7,29.7,109.9,29.7z"/>
			<path d="M106.4,13C106.4,13,106.4,13,106.4,13C106.4,13,106.4,13,106.4,13c0.2-0.2,0.4-0.3,0.5-0.4c0,0,0.1,0,0.1,0
				c0,0.1,0,0.1-0.1,0.1C106.9,12.9,106.7,13,106.4,13z"/>
			<path d="M111.1,11.3c-0.2-0.1-0.5-0.1-0.8-0.2c0,0,0,0-0.1,0c0,0,0,0,0.1,0c0.3,0.1,0.7,0.1,1,0.1c0.1,0,0.2-0.1,0.2,0
				c0,0.1-0.1,0.1-0.2,0.1C111.2,11.3,111.2,11.3,111.1,11.3z"/>
			<path d="M103.6,23.3c0,0.1,0,0.2-0.1,0.1c-0.1-0.1-0.1-0.2-0.2-0.4c0,0,0-0.1,0.1-0.1C103.6,23,103.6,23.2,103.6,23.3z"/>
			<path d="M108.9,29.2c0.2,0,0.3,0,0.4,0.1c0,0.1,0,0.1-0.2,0.1c-0.1,0-0.2,0-0.2-0.1c-0.1,0-0.2,0-0.2-0.1
				C108.8,29.2,108.8,29.2,108.9,29.2z"/>
			<path d="M112.4,29.6c-0.2,0-0.3,0-0.4,0c0,0-0.1,0-0.1,0c0,0,0.1-0.1,0.1-0.1c0.1,0,0.2-0.1,0.4-0.1c0.1,0,0.1,0,0.2,0
				c0,0,0,0.1,0,0.1C112.4,29.6,112.4,29.6,112.4,29.6z"/>
			<path d="M112.5,11.6c-0.1,0-0.1,0-0.2-0.1c-0.1,0-0.2-0.1-0.3-0.1c0.1,0,0.2,0,0.3,0c0.1,0,0.2,0,0.3,0.1c0,0,0.1,0.1,0.1,0.1
				C112.6,11.5,112.6,11.6,112.5,11.6z"/>
			<path d="M105.9,27.5c-0.1-0.1-0.2-0.2-0.2-0.3c0,0,0-0.1,0.1-0.1c0.1,0.1,0.2,0.1,0.2,0.3C106,27.4,106,27.5,105.9,27.5z"/>
			<path d="M111.4,29.5c-0.1,0-0.2,0-0.2,0c0.2,0,0.3-0.1,0.5-0.1c0,0,0.1,0,0.1,0C111.7,29.5,111.5,29.4,111.4,29.5z"/>
			<path d="M108.1,12.4C108.1,12.4,108.1,12.4,108.1,12.4c0-0.1,0.2-0.2,0.3-0.2c0,0,0.1,0,0.1,0C108.4,12.4,108.2,12.3,108.1,12.4z
				"/>
			<path d="M103.4,20.6c0,0,0,0.1-0.1,0.1c-0.1,0-0.1-0.1-0.1-0.1c0,0,0-0.1,0.1-0.1C103.4,20.4,103.4,20.5,103.4,20.6z"/>
			<path d="M112.4,12c-0.1,0-0.1,0-0.1-0.1C112.3,12,112.3,11.9,112.4,12C112.4,11.9,112.4,12,112.4,12C112.5,12,112.4,12,112.4,12z
				"/>
			<path d="M113.8,12.3c-0.1,0-0.1,0-0.1,0c-0.1,0-0.1-0.1-0.2-0.1c0,0,0,0,0.1,0C113.6,12.3,113.6,12.3,113.8,12.3z"/>
			<path d="M113.7,28.8C113.7,28.8,113.7,28.8,113.7,28.8c0,0.1-0.1,0.1-0.2,0.1c0,0,0,0,0,0C113.6,28.8,113.7,28.8,113.7,28.8z"/>
		</g>
	</g>
</g>
<g id="CrcJDg.tif_1_">
	<g>
		<g>
			<path d="M208.9,10.3c0.7,0,1.4,0.1,2.2,0.2c0,0,0.1,0,0.1,0c0,0-0.1,0-0.1,0c0,0,0,0,0,0c0,0,0,0,0,0c0.3,0.1,0.5,0.2,0.8,0.1
				c0.1,0,0.3,0.1,0.5,0.2c0,0,0,0-0.1,0c-0.3-0.1-0.7-0.2-1-0.2c-0.6,0.1-1.3-0.2-1.9,0.1c-0.1,0-0.2,0-0.3,0c-0.4,0-0.8,0-1.1,0.3
				c-0.1,0.1-0.3,0.1-0.5,0.1c-0.3,0-0.6,0.1-0.8,0.3c-0.2,0.3-0.5,0.3-0.8,0.3c-0.4,0.1-0.5,0.3-0.7,0.6c-0.1,0.1,0,0.2,0.1,0.2
				c0.1,0.1,0.2,0.1,0.3,0.1c0.3-0.2,0.7-0.5,0.9-0.8c0.1-0.1,0.2-0.1,0.3,0c0.1,0.1,0,0.2,0,0.3c-0.2,0.3-0.5,0.5-0.8,0.6
				c-0.3,0-0.5,0.2-0.6,0.5c-0.1,0.3-0.4,0.6-0.8,0.7c-0.4,0.1-0.5,0.4-0.6,0.7c-0.1,0.2-0.2,0.4-0.4,0.5c-0.4,0.2-0.6,0.5-0.7,1
				c0,0.4-0.4,0.6-0.7,0.8c-0.4,0.3-0.4,1.2,0,1.3c0.1,0,0.2,0,0.2-0.1c0.1-0.4,0.3-0.9,0.3-1.4c0-0.1,0-0.2,0.1-0.2
				c0.2,0.1,0.3,0.2,0.4,0.4c0.1,0.6-0.2,1.1-0.7,1.3c-0.1,0-0.1,0.1-0.1,0.2c0,0.1,0,0.2,0,0.4c0,0.4-0.1,0.7-0.5,1
				c-0.4,0.2-0.3,1.1,0.1,1.2c0.5,0.2,0.3,0.6,0.4,1c0,0.2,0.1,0.2,0.2,0.3c0.6,0.2,0.7,0.4,0.7,1c0,0.2-0.2,0.3-0.4,0.3
				c-0.1,0-0.2-0.1-0.2-0.2c0-0.4-0.2-0.7-0.3-1c0-0.1-0.1-0.1-0.2-0.1c-0.1,0.1-0.3,0.1-0.3,0.3c0,0.5,0.1,0.9,0.7,1
				c0.1,0,0.2,0.1,0.2,0.3c0,0.5,0.2,0.9,0.7,1.1c0.1,0.1,0.2,0.2,0.2,0.3c-0.1,0.5,0.2,0.8,0.5,1c0.2,0.1,0.2,0.3,0.2,0.5
				c-0.1,0.2,0,0.4,0.2,0.5c0.1,0.1,0.3,0.2,0.4,0.3c0.1,0.1,0.1,0.1,0.1,0.3c-0.1,0.3,0.3,0.8,0.8,0.8c0.1,0,0.4,0.1,0.4-0.1
				c0.1-0.1-0.2-0.2-0.2-0.3c-0.2-0.2-0.3-0.4-0.6-0.5c0,0,0,0-0.1-0.1c0,0,0-0.1,0.1-0.1c0.5-0.2,1.1,0.3,1.1,0.8
				c0,0.1,0,0.2,0.1,0.2c0.1,0.1,0.3,0.1,0.4,0.2c0.2,0.1,0.3,0.2,0.3,0.4c0,0.1,0,0.1,0.1,0.2c0.4,0.1,0.7,0.3,1.1,0.2
				c0.4-0.1,0.8,0,1.2,0.1c0,0,0.1,0.1,0.1,0.1c0,0.3,0.2,0.2,0.3,0.2c0.7,0.1,1.3-0.4,1.9-0.3c0.2,0,0.4,0.1,0.6,0c0,0,0,0,0,0
				c-0.2,0.1-0.5,0.3-0.7,0.2c-0.3-0.2-0.5-0.1-0.8,0c-0.2,0-0.4,0.1-0.4,0.2c0,0.1,0.3,0,0.4,0c0,0,0.1,0,0.1,0c0.1,0,0.2,0,0.3,0
				c-0.1,0-0.2,0.1-0.3,0.1c-0.2,0.1-0.5,0.1-0.7,0.1c-1.8,0.2-3.6,0.1-5.3-0.6c-2.2-0.9-4-2.3-5.1-4.5c-0.2-0.5-0.4-1-0.5-1.5
				c0,0,0-0.2,0-0.2c0.1,0,0.1,0.1,0.1,0.1c0.3,0.4,0.4,0.8,0.4,1.2c0,0.1,0,0.2,0.1,0.2c0.1,0,0-0.1,0-0.2c0-0.2-0.1-0.3-0.1-0.5
				c-0.1-0.3-0.3-0.6-0.1-1c0.1-0.1,0-0.3,0-0.5c-0.1-0.3-0.1-0.7,0.1-1c0.1-0.2,0-0.4,0-0.6c0-0.2,0-0.4,0.2-0.6
				c0.3-0.3,0.3-1.1,0-1.3c-0.3-0.2-0.2-0.5-0.1-0.7c0-0.3,0-0.5-0.2-0.7c-0.2-0.1,0-0.3,0-0.5c0.1-0.3,0.2-0.5-0.1-0.8
				c0,0,0-0.1,0-0.2c0.1-0.2,0.2-0.4,0.2-0.7c0-0.1,0-0.3-0.1-0.3c-0.1-0.1-0.1,0.1-0.2,0.2c0,0-0.1,0.1-0.1,0.1c0-0.1,0-0.1,0-0.2
				c0-0.2,0.1-0.3,0.2-0.5c0,0,0.1,0,0.1,0c0,0,0,0.1,0,0.1c0,0,0,0.1,0,0.1c0,0,0.1-0.1,0.1-0.1c0.1-0.5,0.3-1,0.7-1.4
				c0,0,0.1-0.1,0.1-0.1c0,0,0,0.1,0,0.1c0,0,0,0.1,0,0.1c0,0,0.1-0.1,0.1-0.1c0.8-1.7,2.2-2.5,3.8-3.2
				C206,10.6,207.4,10.2,208.9,10.3z M203.9,13.7c0,0.1,0.1,0.2,0.2,0.3c0,0,0.1,0,0.1,0c0.3-0.3,0.6-0.6,0.8-1
				c0-0.1,0.1-0.1-0.1-0.2C204.5,12.8,203.9,13.4,203.9,13.7z M202.7,15.1c0,0.1,0.1,0.2,0.1,0.2c0.1,0,0.2,0,0.2-0.1
				c0.2-0.3,0.3-0.7,0.5-1c0,0,0-0.1,0-0.1c0,0-0.1,0-0.1,0C203,14.3,202.8,14.6,202.7,15.1z M201.1,19.3c0,0.2,0,0.4,0.2,0.4
				c0.2,0,0.2-0.2,0.2-0.3c0.1-0.2,0.1-0.5,0.1-0.7c0,0,0-0.1,0-0.1c0,0-0.1,0-0.1,0C201.2,18.7,201.2,19,201.1,19.3z M203,26
				c0.2,0,0.2,0,0.2-0.2c-0.1-0.3-0.2-0.5-0.4-0.7c-0.1-0.1-0.1-0.1-0.2,0c-0.1,0.1-0.2,0.2-0.1,0.3C202.6,25.6,202.7,25.9,203,26z
				 M203.5,27.2c0.1,0,0.1,0,0.1-0.1c-0.1-0.3-0.3-0.6-0.5-0.8c-0.1-0.1-0.2-0.1-0.2,0.1C202.8,26.6,203.3,27.2,203.5,27.2z
				 M208.9,30.4c0.2,0,0.3-0.1,0.5-0.1c0,0,0.1,0,0.1,0c0,0,0-0.1-0.1-0.1c-0.4-0.2-0.8-0.2-1.2-0.2c-0.1,0-0.1,0-0.1,0.1
				c0,0.1,0,0.1,0.1,0.1C208.4,30.3,208.7,30.3,208.9,30.4z M206.6,29.7c0.1,0,0.2,0,0.2-0.1c0-0.1-0.1-0.2-0.2-0.2
				c-0.2-0.1-0.5-0.2-0.7-0.3c-0.1,0-0.2-0.1-0.2,0.1c0,0.1,0,0.2,0.1,0.2C206,29.5,206.3,29.7,206.6,29.7z M201.7,16.4
				c0,0.1,0,0.2,0.1,0.2c0.1,0,0.1-0.1,0.2-0.1c0.1-0.3,0.2-0.6,0.4-0.8c0,0,0-0.1,0-0.1c0,0-0.1,0-0.1,0
				C201.9,15.8,201.8,16.1,201.7,16.4z M201.5,22.1c0-0.2,0-0.4-0.1-0.6c0-0.1,0-0.1-0.1-0.2c-0.1,0-0.1,0.1-0.2,0.1
				c-0.1,0.3-0.1,0.5,0.1,0.8c0,0.1,0.1,0.1,0.2,0.1C201.5,22.3,201.5,22.2,201.5,22.1z M201,21.9c0-0.1,0-0.2-0.1-0.4
				c0,0,0-0.1-0.1-0.1c0,0-0.1,0.1-0.1,0.1c-0.1,0.2-0.1,0.4-0.1,0.6c0,0.1-0.1,0.3,0,0.3c0.2,0,0.3-0.2,0.3-0.3
				C201,22.1,201,22.1,201,21.9z M201.6,24.3c0,0.2,0.1,0.4,0.3,0.6c0,0,0.1,0,0.1,0c0,0,0-0.1,0-0.1c-0.1-0.2-0.1-0.4-0.2-0.6
				c0-0.1-0.1-0.2-0.2-0.1C201.6,24.1,201.6,24.2,201.6,24.3z M201.1,19c0-0.2-0.1-0.3-0.2-0.5c0,0-0.1,0-0.1,0c0,0,0,0.1,0,0.1
				c0,0.3,0.1,0.6,0.1,0.9c0,0,0,0.1,0.1,0.1c0,0,0.1-0.1,0.1-0.1C201,19.3,201.1,19.1,201.1,19z M200.4,23.7c0,0.1,0,0.3,0.1,0.3
				c0.1,0,0.1-0.1,0.2-0.2c0.1-0.3,0-0.5-0.1-0.7c0,0,0,0,0-0.1c0,0-0.1,0.1-0.1,0.1C200.5,23.2,200.5,23.5,200.4,23.7z M208.5,10.8
				c0.2,0,0.4-0.1,0.6-0.1c0,0,0.1-0.1,0.1-0.1c0,0-0.1-0.1-0.1-0.1c-0.2,0-0.4,0-0.7,0c-0.1,0-0.3,0-0.3,0.1
				C208.2,10.8,208.4,10.8,208.5,10.8z M204,28.2c0.1,0,0.2-0.1,0.1-0.1c-0.1-0.2-0.3-0.4-0.5-0.5c-0.1-0.1-0.1,0-0.1,0.1
				C203.6,28,203.8,28.1,204,28.2z M200.6,17.8c0,0.1,0,0.1,0.1,0.2c0,0,0.1,0,0.1,0c0.1-0.2,0.2-0.5,0-0.7c0-0.1-0.1-0.1-0.1-0.1
				c-0.1,0-0.1,0.1-0.1,0.2C200.5,17.4,200.6,17.6,200.6,17.8z M207.5,10.8c-0.2,0-0.5,0-0.7,0.2c0,0,0,0.1-0.1,0.1
				c0,0,0.1,0.1,0.1,0.1c0.2,0,0.5-0.1,0.7-0.2c0,0,0.1,0,0.1-0.1C207.7,10.8,207.6,10.8,207.5,10.8z M209.7,30.4
				c-0.2,0-0.3,0-0.5,0c0,0-0.1,0-0.1,0.1c0,0,0.1,0.1,0.1,0.1c0.2,0,0.3,0,0.5,0c0.2,0,0.3,0,0.5-0.1
				C210,30.3,209.9,30.4,209.7,30.4z M207.3,30.2c0.1,0,0.1,0,0.2-0.1c0,0,0-0.1-0.1-0.1c-0.2-0.1-0.5-0.2-0.7-0.2
				c0,0-0.1,0-0.1,0.1c0,0.1,0,0.1,0.1,0.1C206.9,30.1,207.1,30.2,207.3,30.2z M210,10.4C210,10.4,210,10.4,210,10.4
				c-0.1,0-0.1,0-0.2,0c-0.1,0-0.1,0-0.2,0.1c0.1,0,0.1,0.1,0.2,0.1c0.3,0.1,0.5,0.1,0.8,0c0,0,0.1,0,0.1-0.1c0,0-0.1-0.1-0.1-0.1
				C210.3,10.5,210.2,10.5,210,10.4z M205.6,11.8c0.2-0.1,0.4-0.2,0.5-0.3c0,0,0-0.1,0-0.1c0,0,0,0-0.1,0c-0.2,0-0.4,0.1-0.6,0.3
				c0,0-0.1,0.1,0,0.1C205.5,11.7,205.5,11.7,205.6,11.8z M201.6,20.5c0-0.1,0-0.3-0.1-0.3c-0.1,0-0.1,0.2-0.1,0.3
				c0,0.1-0.1,0.3,0.1,0.3C201.6,20.8,201.5,20.6,201.6,20.5z M200.8,25.2c0-0.3-0.1-0.5-0.2-0.7c0,0,0,0-0.1-0.1c0,0,0,0.1,0,0.1
				c0,0.2,0.1,0.5,0.2,0.7C200.7,25.2,200.7,25.2,200.8,25.2C200.8,25.2,200.8,25.2,200.8,25.2z M200.8,16.2c0-0.1,0-0.2-0.1-0.2
				c-0.1,0-0.1,0.1-0.1,0.2c0,0.2,0,0.4-0.1,0.5c0,0,0,0.1,0,0.1c0,0,0.1,0,0.1-0.1C200.7,16.5,200.7,16.3,200.8,16.2z M200.9,14.9
				c0-0.1-0.1-0.1-0.1-0.1c0,0-0.1,0-0.1,0.1c-0.1,0.2-0.1,0.4-0.2,0.6c0,0,0,0,0,0c0,0,0,0,0,0C200.7,15.4,200.8,15.2,200.9,14.9z
				 M204.2,12.5c0.2-0.1,0.3-0.2,0.3-0.3c0,0,0,0,0,0C204.4,12.2,204.2,12.3,204.2,12.5C204.2,12.5,204.2,12.5,204.2,12.5z
				 M204.7,29c-0.1-0.1-0.2-0.1-0.3-0.2c0,0-0.1,0-0.1,0.1c0,0.1,0.1,0.2,0.2,0.2C204.6,29,204.7,29,204.7,29z M207.9,30.5
				c0,0,0.1,0,0.1,0c-0.1-0.1-0.2-0.1-0.3-0.1c0,0-0.1,0-0.1,0C207.6,30.5,207.8,30.5,207.9,30.5z M201.2,26.6
				C201.2,26.6,201.3,26.5,201.2,26.6c0-0.1,0-0.1,0-0.1c-0.1-0.1-0.1-0.2-0.2-0.3c0,0.1,0.1,0.2,0.1,0.3
				C201.2,26.4,201.2,26.5,201.2,26.6z M200.9,26.6c-0.1-0.1-0.1-0.2-0.2-0.3c0,0,0,0,0,0C200.7,26.4,200.7,26.6,200.9,26.6
				C200.8,26.6,200.9,26.6,200.9,26.6z"/>
			<path d="M202.9,20.5c0.1,0.3-0.1,0.6-0.4,0.7c-0.1,0-0.2,0-0.2-0.1c0.1-0.4,0.1-0.7,0-1.1c0-0.1,0-0.1,0.1-0.2c0.1,0,0.1,0,0.2,0
				C202.9,20,203,20.2,202.9,20.5z"/>
			<path d="M204.2,15.8c0,0.5-0.1,0.9-0.6,1.1c-0.1,0-0.1,0-0.2,0c0-0.1,0-0.1,0-0.2c0.2-0.4,0.3-0.8,0.4-1.1c0-0.1,0.1-0.2,0.1-0.1
				C204.1,15.5,204.1,15.7,204.2,15.8z"/>
			<path d="M204.1,24.7c0,0.1,0,0.3-0.2,0.3c-0.1,0-0.2-0.1-0.2-0.2c-0.1-0.3-0.2-0.5-0.4-0.7c0-0.1-0.1-0.1,0-0.2
				c0.1-0.1,0.1,0,0.2,0C203.9,24,204.1,24.3,204.1,24.7z"/>
			<path d="M205.3,14.5c-0.1,0.4-0.3,0.7-0.6,0.9c0,0-0.1,0-0.1,0c-0.1,0,0-0.1,0-0.2c0.2-0.2,0.3-0.5,0.5-0.8
				c0-0.1,0.1-0.2,0.2-0.1C205.3,14.2,205.3,14.3,205.3,14.5z"/>
			<path d="M200.1,20.1c-0.1,0.3-0.1,0.6,0,0.9c0,0.1,0,0.1-0.1,0.2c-0.1,0-0.1,0-0.2-0.1c-0.2-0.2-0.2-0.8,0-1
				c0-0.1,0.1-0.2,0.2-0.1C200,19.9,200,20,200.1,20.1z"/>
			<path d="M205.6,27.3c0,0.2,0,0.3-0.1,0.3c-0.1,0-0.2,0-0.2-0.1c-0.1-0.2-0.3-0.5-0.4-0.7c0-0.1,0.1-0.1,0.2-0.1
				C205.4,26.8,205.6,27,205.6,27.3z"/>
			<path d="M204.9,26.1c0,0.1,0,0.2-0.1,0.3c-0.1,0-0.2-0.1-0.2-0.2c-0.1-0.3-0.2-0.5-0.3-0.7c0,0-0.1-0.1,0-0.1c0,0,0.1,0,0.1,0
				C204.7,25.5,204.9,25.7,204.9,26.1z"/>
			<path d="M203.7,19c0,0.1,0,0.2-0.1,0.3c-0.1,0.2-0.1,0.4-0.3,0.3c-0.2,0,0-0.2,0-0.3c0-0.2,0-0.4,0-0.6c0-0.1,0-0.2,0.1-0.2
				c0.1,0,0.2,0,0.2,0.1C203.6,18.8,203.7,18.9,203.7,19z"/>
			<path d="M207.2,12.1c-0.1,0-0.2,0-0.2-0.1c0-0.1,0.1-0.1,0.2-0.1c0.3-0.1,0.6-0.2,0.8-0.3c0.1-0.1,0.2-0.1,0.3,0
				c0.1,0.1,0,0.1-0.1,0.2C207.9,12.1,207.6,12.1,207.2,12.1z"/>
			<path d="M208,29.2c0.2,0,0.5,0.1,0.7,0.2c0.1,0.1,0.2,0.2,0.1,0.3c-0.1,0.1-0.2,0-0.2,0c-0.2-0.1-0.5-0.3-0.8-0.3
				c0,0-0.1,0-0.1-0.1c0,0,0.1,0,0.1-0.1C207.9,29.2,207.9,29.2,208,29.2z"/>
			<path d="M203.7,22c0,0.1,0,0.3-0.2,0.3c-0.2,0-0.1-0.2-0.1-0.3c0-0.1-0.1-0.3-0.1-0.4c0-0.1,0-0.1,0-0.2c0.1,0,0.1,0,0.2,0
				C203.7,21.6,203.7,21.8,203.7,22z"/>
			<path d="M199.7,23.3c0,0.1,0.1,0.3-0.1,0.3c-0.1,0-0.1-0.2-0.2-0.3c-0.1-0.2-0.1-0.4,0-0.6c0,0,0.1-0.1,0.1-0.1
				c0,0,0.1,0.1,0.1,0.1C199.7,22.8,199.7,23,199.7,23.3z"/>
			<path d="M205.9,14.1C205.8,14.1,205.8,14.1,205.9,14.1c-0.1-0.1-0.1-0.1,0-0.1c0.2-0.2,0.4-0.4,0.7-0.6c0,0,0.1-0.1,0.2,0
				c0,0,0.1,0.1,0,0.1C206.5,13.8,206.2,14,205.9,14.1z"/>
			<path d="M199.4,21.7c0-0.1,0-0.1,0-0.1c0-0.1,0-0.3,0.2-0.4c0,0,0.1,0,0.1,0c0.1,0.1,0,0.2,0,0.4c0,0.1,0,0.3-0.1,0.4
				c0,0,0,0.1-0.1,0.1c0,0-0.1-0.1-0.1-0.1C199.4,21.9,199.4,21.8,199.4,21.7z"/>
			<path d="M199.3,18.3c0-0.1,0.1-0.3,0.1-0.5c0,0,0.1-0.1,0.1-0.1c0,0,0.1,0,0.1,0.1c0,0.2,0.1,0.4,0.1,0.6c0,0.1,0,0.3-0.2,0.2
				C199.3,18.6,199.3,18.5,199.3,18.3z"/>
			<path d="M199.4,19.4c0.1-0.2,0-0.4,0.2-0.4c0.1,0,0.1,0.3,0.1,0.4c0,0.1,0,0.2,0.1,0.2c0,0.1,0,0.3-0.1,0.3
				c-0.1,0-0.2-0.1-0.2-0.2C199.4,19.5,199.4,19.5,199.4,19.4z"/>
			<path d="M208.9,11.6c-0.1,0-0.3,0-0.4-0.1c0.1-0.1,0.3-0.1,0.4-0.1c0.2,0,0.4-0.1,0.6-0.2c0.1,0,0.2,0,0.2,0
				c0,0.1-0.1,0.1-0.1,0.1C209.4,11.6,209.1,11.6,208.9,11.6z"/>
			<path d="M199.8,16.7c0,0.2-0.1,0.4-0.2,0.6c0,0-0.1,0.1-0.1,0.1c0,0-0.1-0.1-0.1-0.1c0-0.2,0.1-0.4,0.2-0.6c0-0.1,0-0.2,0.1-0.1
				C199.8,16.5,199.8,16.6,199.8,16.7z"/>
			<path d="M210.2,11.2c0.2,0,0.4-0.1,0.7-0.1c0.1,0,0.1,0,0.1,0.1c0,0-0.1,0.1-0.1,0.1c-0.4,0.2-0.7,0-1.1,0c-0.1,0,0-0.1,0-0.1
				C210,11.2,210.1,11.2,210.2,11.2z"/>
			<path d="M207.3,28.2c0.2,0.1,0.4,0.2,0.6,0.4c0,0.1,0,0.1,0,0.2c-0.1,0.1-0.1,0-0.1,0c-0.2-0.1-0.3-0.3-0.5-0.4
				C207.3,28.4,207.2,28.3,207.3,28.2C207.3,28.3,207.3,28.3,207.3,28.2z"/>
			<path d="M204.2,17.9c0-0.1,0-0.2,0.1-0.3c0-0.1,0-0.2,0.1-0.2c0.1,0,0.1,0.1,0.1,0.2c0,0.1,0,0.3-0.1,0.4c0,0-0.1,0.1-0.2,0.1
				C204.2,18,204.2,17.9,204.2,17.9z"/>
			<path d="M210.9,29.7c0.1,0.1,0.4-0.1,0.4,0.1c0,0.2-0.3,0-0.4,0c-0.2,0-0.5,0-0.7,0c0,0,0,0-0.1,0c0,0,0,0,0.1,0
				C210.4,29.8,210.7,29.7,210.9,29.7z"/>
			<path d="M207.4,13C207.4,13,207.4,13,207.4,13C207.4,13,207.4,13,207.4,13c0.2-0.2,0.4-0.3,0.5-0.4c0,0,0.1,0,0.1,0
				c0,0.1,0,0.1-0.1,0.1C207.9,12.9,207.7,13,207.4,13z"/>
			<path d="M212.1,11.3c-0.2-0.1-0.5-0.1-0.8-0.2c0,0,0,0-0.1,0c0,0,0,0,0.1,0c0.3,0.1,0.7,0.1,1,0.1c0.1,0,0.2-0.1,0.2,0
				c0,0.1-0.1,0.1-0.2,0.1C212.2,11.3,212.2,11.3,212.1,11.3z"/>
			<path d="M204.6,23.3c0,0.1,0,0.2-0.1,0.1c-0.1-0.1-0.1-0.2-0.2-0.4c0,0,0-0.1,0.1-0.1C204.6,23,204.6,23.2,204.6,23.3z"/>
			<path d="M209.9,29.2c0.2,0,0.3,0,0.4,0.1c0,0.1,0,0.1-0.2,0.1c-0.1,0-0.2,0-0.2-0.1c-0.1,0-0.2,0-0.2-0.1
				C209.8,29.2,209.8,29.2,209.9,29.2z"/>
			<path d="M213.4,29.6c-0.2,0-0.3,0-0.4,0c0,0-0.1,0-0.1,0c0,0,0.1-0.1,0.1-0.1c0.1,0,0.2-0.1,0.4-0.1c0.1,0,0.1,0,0.2,0
				c0,0,0,0.1,0,0.1C213.4,29.6,213.4,29.6,213.4,29.6z"/>
			<path d="M213.5,11.6c-0.1,0-0.1,0-0.2-0.1c-0.1,0-0.2-0.1-0.3-0.1c0.1,0,0.2,0,0.3,0c0.1,0,0.2,0,0.3,0.1c0,0,0.1,0.1,0.1,0.1
				C213.6,11.5,213.6,11.6,213.5,11.6z"/>
			<path d="M206.9,27.5c-0.1-0.1-0.2-0.2-0.2-0.3c0,0,0-0.1,0.1-0.1c0.1,0.1,0.2,0.1,0.2,0.3C207,27.4,207,27.5,206.9,27.5z"/>
			<path d="M212.4,29.5c-0.1,0-0.2,0-0.2,0c0.2,0,0.3-0.1,0.5-0.1c0,0,0.1,0,0.1,0C212.7,29.5,212.5,29.4,212.4,29.5z"/>
			<path d="M209.1,12.4C209.1,12.4,209.1,12.4,209.1,12.4c0-0.1,0.2-0.2,0.3-0.2c0,0,0.1,0,0.1,0C209.4,12.4,209.2,12.3,209.1,12.4z
				"/>
			<path d="M204.4,20.6c0,0,0,0.1-0.1,0.1c-0.1,0-0.1-0.1-0.1-0.1c0,0,0-0.1,0.1-0.1C204.4,20.4,204.4,20.5,204.4,20.6z"/>
			<path d="M213.4,12c-0.1,0-0.1,0-0.1-0.1C213.3,12,213.3,11.9,213.4,12C213.4,11.9,213.4,12,213.4,12C213.5,12,213.4,12,213.4,12z
				"/>
			<path d="M214.8,12.3c-0.1,0-0.1,0-0.1,0c-0.1,0-0.1-0.1-0.2-0.1c0,0,0,0,0.1,0C214.6,12.3,214.6,12.3,214.8,12.3z"/>
			<path d="M214.7,28.8C214.7,28.8,214.7,28.8,214.7,28.8c0,0.1-0.1,0.1-0.2,0.1c0,0,0,0,0,0C214.6,28.8,214.7,28.8,214.7,28.8z"/>
		</g>
	</g>
</g>
</svg>
