<?xml version="1.0" encoding="utf-8"?>
<!-- Generator: Adobe Illustrator 25.2.3, SVG Export Plug-In . SVG Version: 6.00 Build 0)  -->
<svg version="1.1" id="Layer_1" xmlns="http://www.w3.org/2000/svg" xmlns:xlink="http://www.w3.org/1999/xlink" x="0px" y="0px"
	 viewBox="0 0 112.4 83" enable-background="new 0 0 112.4 83" xml:space="preserve">
<path fill="#151515" stroke="#151515" stroke-width="2" stroke-linecap="round" stroke-linejoin="round" stroke-miterlimit="10" d="
	M15.1-74.1l0.1,15.7c-1.4,1.2-3.1,2-5,2.6c-2,0.5-3.9,0.8-5.8,0.8c-2.2,0-4.3-0.3-6.3-1c-1.9-0.7-3.6-1.8-5-3.3s-2.5-3.4-3.3-5.7
	c-1-2.3-1.4-5-1.4-8.2c0-3.3,0.5-6.1,1.4-8.5c0.9-2.3,2.2-4.2,3.8-5.7c1.5-1.5,3.3-2.5,5.2-3.2c1.9-0.7,3.9-1,5.9-1s3.8,0.1,5.3,0.4
	c1.5,0.3,2.7,0.6,3.7,0.9l-1.4,5.8c-0.8-0.3-1.8-0.6-2.8-0.8s-2.4-0.3-4-0.3c-1.4,0-2.8,0.2-4,0.7c-1.2,0.4-2.2,1.2-3.1,2.1
	c-0.9,1-1.6,2.3-2,3.8c-0.5,1.5-0.7,3.4-0.7,5.6c0,2.1,0.2,3.9,0.7,5.5c0.5,1.6,1.1,2.8,2,3.8c0.8,1,1.8,1.7,3,2.2s2.3,0.7,3.6,0.7
	c0.9,0,1.7-0.1,2.6-0.3c0.8-0.2,1.5-0.5,2.1-1v-6.6l-7.6-0.8v-4.2L15.1-74.1z M54-73.4c0,5.9-1.2,10.4-3.8,13.6
	c-2.6,3.2-6.2,4.8-11,4.8c-2.6,0-4.8-0.4-6.6-1.3c-1.9-0.9-3.4-2.1-4.7-3.7c-1.2-1.6-2.2-3.5-2.8-5.8c-0.6-2.2-0.9-4.7-0.9-7.5
	c0-5.9,1.2-10.4,3.8-13.6c2.6-3.2,6.2-4.8,11-4.8c2.5,0,4.7,0.4,6.6,1.3s3.4,2.1,4.7,3.7c1.2,1.6,2.2,3.5,2.8,5.8
	C53.7-78.6,54-76.1,54-73.4z M46.8-73.3c0-1.7-0.2-3.3-0.4-4.8s-0.7-2.8-1.3-3.9c-0.6-1.1-1.4-2-2.4-2.6s-2.2-0.9-3.6-0.9
	c-2.4,0-4.3,1-5.7,3s-2,5-2,9.2c0,1.8,0.2,3.4,0.5,4.9s0.8,2.8,1.4,3.8c0.6,1.1,1.4,1.9,2.4,2.5c1,0.6,2.1,0.9,3.5,0.9
	c2.4,0,4.3-1,5.7-2.9C46.2-66,46.8-69.1,46.8-73.3z M85.2-62.6l-15.4,0.1l-0.1-29h-6.9L63-56.3l22.3-0.1L85.2-62.6z M94.1-56.3h6.9
	l-0.1-14.2l15.1-0.1v-6.1l-15.1,0.1v-8.7l16.2-0.1v-6.1L94-91.4L94.1-56.3z"/>
<path fill="#151515" stroke="#151515" stroke-width="2" stroke-linecap="round" stroke-linejoin="round" stroke-miterlimit="10" d="
	M-24.5-24v-66.6 M-24.5-89.6l-26.8,9.4l26.8,6.2C-24.5-74-24.5-89.6-24.5-89.6z"/>
<path fill="#151515" stroke="#151515" stroke-linecap="round" stroke-linejoin="round" stroke-miterlimit="10" d="M3.2-44.4h2.4
	v14.2c0,1.3-0.2,2.4-0.5,3.3s-0.8,1.7-1.4,2.3c-0.6,0.6-1.4,1-2.2,1.3c-0.9,0.3-1.8,0.4-2.9,0.4c-2.5,0-4.4-0.6-5.7-1.7
	S-9-27.5-9-29.8v-14.6h2.5v13.5c0,1.1,0.1,2,0.3,2.7s0.5,1.3,1,1.8c0.4,0.5,1,0.8,1.6,1s1.4,0.3,2.2,0.3c1.6,0,2.8-0.4,3.5-1.3
	s1.1-2.4,1.1-4.5L3.2-44.4L3.2-44.4z M11.6-44.2c0.8-0.2,1.6-0.3,2.5-0.4s1.8-0.1,2.7-0.1c0.9,0,1.9,0.1,2.8,0.3s1.8,0.5,2.6,1
	c0.8,0.5,1.4,1.2,1.9,2s0.8,1.9,0.8,3.3c0,1.3-0.2,2.4-0.7,3.3c-0.5,0.9-1.1,1.6-1.9,2.2c-0.8,0.6-1.7,1-2.7,1.2s-2,0.4-3.1,0.4
	c-0.1,0-0.3,0-0.5,0c-0.2,0-0.5,0-0.7,0s-0.5,0-0.8-0.1c-0.2,0-0.4,0-0.5-0.1v8.1h-2.5L11.6-44.2L11.6-44.2z M16.8-42.5
	c-0.5,0-1,0-1.5,0s-0.9,0.1-1.2,0.2v8.8c0.1,0,0.3,0.1,0.5,0.1s0.5,0,0.7,0s0.5,0,0.7,0c0.2,0,0.4,0,0.5,0c0.7,0,1.4-0.1,2.1-0.2
	s1.3-0.4,1.8-0.7c0.6-0.3,1-0.8,1.3-1.5s0.5-1.4,0.5-2.4c0-0.8-0.2-1.5-0.5-2.1s-0.7-1-1.2-1.3s-1.1-0.6-1.8-0.7
	C18.1-42.4,17.4-42.5,16.8-42.5z M36-33.8h7.2v9.4c-0.3,0.2-0.7,0.5-1.2,0.7s-0.9,0.4-1.5,0.5s-1.1,0.2-1.6,0.3
	c-0.6,0.1-1.1,0.1-1.6,0.1c-1.4,0-2.6-0.2-3.7-0.7c-1.1-0.4-2.1-1.1-2.9-2s-1.5-2.1-1.9-3.4c-0.5-1.4-0.7-3-0.7-4.9
	c0-2,0.3-3.7,0.8-5c0.6-1.4,1.3-2.5,2.2-3.4c0.9-0.9,1.9-1.5,3.1-1.9c1.1-0.4,2.3-0.6,3.4-0.6c1.2,0,2.2,0.1,3,0.2s1.5,0.3,2,0.5
	L42-41.8c-1-0.5-2.4-0.7-4.2-0.7c-0.8,0-1.7,0.2-2.5,0.4c-0.8,0.3-1.6,0.8-2.3,1.5s-1.2,1.6-1.6,2.7c-0.4,1.1-0.6,2.5-0.6,4.1
	c0,1.5,0.2,2.8,0.5,3.9c0.3,1.1,0.8,2,1.4,2.7s1.4,1.3,2.2,1.6c0.9,0.4,1.8,0.5,2.8,0.5c1.3,0,2.4-0.2,3.3-0.8v-5.9l-5-0.6L36-33.8
	L36-33.8z M48.1-44.2c0.8-0.1,1.7-0.2,2.7-0.3s1.9-0.1,2.8-0.1s1.8,0.1,2.7,0.3c0.8,0.2,1.6,0.5,2.2,1s1.2,1.1,1.5,1.8
	c0.4,0.8,0.6,1.7,0.6,2.7c0,1.7-0.5,3-1.4,4s-2.1,1.7-3.5,2.1l1.5,1.1l5.3,8.4h-2.9l-5.9-9.2l-3-0.5v9.6h-2.5L48.1-44.2L48.1-44.2z
	 M53.6-42.5c-0.3,0-0.5,0-0.8,0s-0.6,0-0.8,0s-0.5,0-0.8,0.1c-0.2,0-0.4,0-0.6,0.1v7.8H53c1.4,0,2.6-0.3,3.5-1s1.4-1.8,1.4-3.2
	c0-1.1-0.4-2-1.1-2.7C56-42.1,55-42.5,53.6-42.5z M76.3-29h-7.8l-2.1,5.9h-2.5L72-44.7h1.2l8.1,21.6h-2.7L76.3-29z M69.3-31.2h6.2
	l-2.4-6.5l-0.8-3.2l0,0l-0.8,3.3L69.3-31.2z M84.7-44.4c0.4-0.1,0.8-0.1,1.3-0.1s1,0,1.5-0.1c0.5,0,1,0,1.5,0s1,0,1.4,0
	c1.7,0,3.2,0.3,4.4,0.8s2.3,1.3,3.1,2.2s1.4,2.1,1.8,3.4s0.6,2.8,0.6,4.3c0,1.4-0.2,2.8-0.6,4.2c-0.4,1.3-1,2.5-1.8,3.5
	s-1.9,1.8-3.2,2.5c-1.3,0.6-2.9,0.9-4.7,0.9c-0.3,0-0.8,0-1.3,0s-1.1,0-1.6-0.1S86-23,85.6-23c-0.5,0-0.8-0.1-1-0.1L84.7-44.4
	L84.7-44.4z M90.5-42.4c-0.3,0-0.6,0-0.9,0c-0.3,0-0.6,0-0.9,0c-0.3,0-0.6,0-0.8,0.1c-0.2,0-0.4,0-0.6,0.1v17c0.1,0,0.3,0,0.6,0.1
	c0.3,0,0.6,0,0.9,0s0.6,0,0.9,0s0.5,0,0.6,0c1.4,0,2.6-0.2,3.6-0.7s1.7-1.1,2.3-2s1-1.8,1.2-2.8s0.4-2.2,0.4-3.3c0-1-0.1-2-0.3-3
	s-0.6-1.9-1.2-2.7s-1.3-1.5-2.2-2C93-42.2,91.9-42.4,90.5-42.4z M105.3-44.4h11.6v2.2h-9.1v7h8.3v2.2h-8.3v7.6h9.2v2.2h-11.7V-44.4z
	"/>
<g>
	<g>
		<path fill="#2185D0" d="M9.7,61.1c0.8,0,1.5,0.1,2.2,0.2s1.3,0.4,1.9,0.8s1.1,0.8,1.5,1.4s0.8,1.3,1.1,2.2
			c0.5-0.1,0.8-0.4,0.8-0.8c0-0.4-0.1-0.8-0.4-1.4s-0.7-1.1-1.2-1.6s-1.3-1-2.2-1.3S11.2,60,9.8,60c-0.8,0-1.4,0.1-1.9,0.2
			s-1,0.3-1.3,0.4c-0.5-0.3-1-0.6-1.5-1.1S4.3,58.6,4,58s-0.5-1.2-0.7-1.8S3,54.8,3,54.1c0-1.9,0.4-3.6,1.2-4.9s1.9-2.5,3.2-3.4
			s2.8-1.5,4.5-1.9s3.4-0.6,5-0.6c1.5,0,2.9,0.1,4.1,0.3s2.3,0.4,3.3,0.7s1.8,0.6,2.5,1s1.3,0.8,1.8,1.2c0.2,0.5,0.3,1,0.4,1.6
			s0.1,1.2,0.1,1.9c0,0.4,0,0.9-0.1,1.3s-0.2,0.9-0.3,1.3s-0.3,0.9-0.5,1.2s-0.5,0.7-0.8,1c-0.2-0.2-0.6-0.4-1.1-0.6s-1-0.4-1.7-0.6
			s-1.3-0.3-2-0.5s-1.4-0.2-2.2-0.2c-1,0-1.7,0.1-2.1,0.2s-0.6,0.4-0.6,0.7c0,0.2,0,0.3,0.1,0.4c0.3-0.1,0.7-0.1,1-0.2s0.7,0,1.1,0
			c1.3,0,2.7,0.2,4,0.5s2.5,0.9,3.5,1.7s1.8,1.8,2.5,3.1s0.9,2.8,0.9,4.7c0,1.5-0.3,2.8-0.9,4.1s-1.5,2.4-2.8,3.4S24.8,73.4,23,74
			s-3.9,0.9-6.2,0.9c-1.2,0-2.3,0-3.4-0.1s-2-0.2-3-0.4s-1.9-0.5-2.7-0.8s-1.7-0.7-2.6-1.2c-0.5-0.8-0.9-1.5-1.3-2.4
			s-0.5-1.8-0.5-2.9c0-0.8,0.2-1.6,0.5-2.4s0.8-1.4,1.3-1.9s1.2-1,2-1.3S8.8,61.1,9.7,61.1z"/>
	</g>
	<g>
		<path fill="#060A19" d="M7.7,59.1c0.8,0,1.5,0.1,2.2,0.2s1.3,0.4,1.9,0.8s1.1,0.8,1.5,1.4s0.8,1.3,1.1,2.2
			c0.5-0.1,0.8-0.4,0.8-0.8c0-0.4-0.1-0.8-0.4-1.4s-0.7-1.1-1.2-1.6s-1.3-1-2.2-1.3S9.2,58,7.8,58c-0.8,0-1.4,0.1-1.9,0.2
			s-1,0.3-1.3,0.4c-0.5-0.3-1-0.6-1.5-1.1S2.3,56.6,2,56s-0.5-1.2-0.7-1.8S1,52.8,1,52.1c0-1.9,0.4-3.6,1.2-4.9s1.9-2.5,3.2-3.4
			s2.8-1.5,4.5-1.9s3.4-0.6,5-0.6c1.5,0,2.9,0.1,4.1,0.3s2.3,0.4,3.3,0.7s1.8,0.6,2.5,1s1.3,0.8,1.8,1.2c0.2,0.5,0.3,1,0.4,1.6
			s0.1,1.2,0.1,1.9c0,0.4,0,0.9-0.1,1.3s-0.2,0.9-0.3,1.3s-0.3,0.9-0.5,1.2s-0.5,0.7-0.8,1c-0.2-0.2-0.6-0.4-1.1-0.6s-1-0.4-1.7-0.6
			s-1.3-0.3-2-0.5s-1.4-0.2-2.2-0.2c-1,0-1.7,0.1-2.1,0.2s-0.6,0.4-0.6,0.7c0,0.2,0,0.3,0.1,0.4c0.3-0.1,0.7-0.1,1-0.2s0.7,0,1.1,0
			c1.3,0,2.7,0.2,4,0.5s2.5,0.9,3.5,1.7s1.8,1.8,2.5,3.1s0.9,2.8,0.9,4.7c0,1.5-0.3,2.8-0.9,4.1s-1.5,2.4-2.8,3.4S22.8,71.4,21,72
			s-3.9,0.9-6.2,0.9c-1.2,0-2.3,0-3.4-0.1s-2-0.2-3-0.4s-1.9-0.5-2.7-0.8s-1.7-0.7-2.6-1.2c-0.5-0.8-0.9-1.5-1.3-2.4
			s-0.5-1.8-0.5-2.9c0-0.8,0.2-1.6,0.5-2.4s0.8-1.4,1.3-1.9s1.2-1,2-1.3S6.8,59.1,7.7,59.1z"/>
	</g>
</g>
<g>
	<g>
		<path fill="#2185D0" d="M44.7,47.6c-0.8,0-1.5,0.2-2.2,0.4s-1.3,0.5-1.8,0.8s-0.9,0.6-1.2,0.9s-0.4,0.6-0.4,0.8
			c0,0.2,0.1,0.3,0.2,0.5s0.3,0.2,0.4,0.2c0.3-0.3,0.6-0.7,1.1-1s1-0.6,1.5-0.9s1.3-0.5,2-0.6s1.6-0.2,2.6-0.2c0.6,0,1.3,0.1,2,0.2
			s1.5,0.3,2.2,0.6s1.4,0.7,2.1,1.1c0.7,0.5,1.3,1,1.8,1.7s0.9,1.5,1.3,2.5s0.5,2.1,0.5,3.4c0,0.7,0,1.5,0,2.2s0,1.6,0,2.3
			c0,1.1,0.1,2,0.4,2.7s0.7,1.3,1.3,1.7c0,0.1,0,0.3,0,0.5s0,0.3,0,0.4c0,1.1-0.2,2.1-0.5,2.9s-0.8,1.6-1.4,2.1s-1.3,1-2.1,1.3
			c-0.8,0.3-1.6,0.4-2.5,0.4c-0.9,0-1.8-0.1-2.7-0.4S47.7,73.5,47,73s-1.2-1.4-1.5-2.3s-0.6-2.1-0.6-3.5c0-0.7,0-1.4,0.1-2.1
			s0.1-1.3,0.2-1.8s0.1-1.1,0.2-1.6s0.1-0.9,0.1-1.3c0-0.8-0.1-1.3-0.2-1.5s-0.4-0.4-0.8-0.4c-0.2,0-0.5,0.1-0.7,0.2l0.3,3.8
			c-0.1,0.5-0.1,0.9-0.2,1.4s-0.1,0.9-0.1,1.3s-0.1,0.8-0.1,1.1s0,0.6,0,0.8c0,1.2,0.1,2.2,0.4,3s0.5,1.5,0.8,2.1
			c-0.7,0.7-1.6,1.3-2.7,1.7s-2.4,0.6-3.8,0.6c-0.7,0-1.4-0.1-2.1-0.3s-1.4-0.5-2-0.9s-1.1-0.9-1.4-1.5s-0.6-1.3-0.6-2.2V42.3
			c0.7-0.4,1.6-0.8,2.7-1.1s2.1-0.4,3.2-0.4c0.8,0,1.6,0.1,2.4,0.3s1.5,0.4,2.1,0.8s1.1,0.8,1.5,1.4s0.6,1.3,0.6,2.1V47.6z"/>
	</g>
	<g>
		<path fill="#060A19" d="M42.7,45.6c-0.8,0-1.5,0.2-2.2,0.4s-1.3,0.5-1.8,0.8s-0.9,0.6-1.2,0.9s-0.4,0.6-0.4,0.8
			c0,0.2,0.1,0.3,0.2,0.5s0.3,0.2,0.4,0.2c0.3-0.3,0.6-0.7,1.1-1s1-0.6,1.5-0.9s1.3-0.5,2-0.6s1.6-0.2,2.6-0.2c0.6,0,1.3,0.1,2,0.2
			s1.5,0.3,2.2,0.6s1.4,0.7,2.1,1.1c0.7,0.5,1.3,1,1.8,1.7s0.9,1.5,1.3,2.5s0.5,2.1,0.5,3.4c0,0.7,0,1.5,0,2.2s0,1.6,0,2.3
			c0,1.1,0.1,2,0.4,2.7s0.7,1.3,1.3,1.7c0,0.1,0,0.3,0,0.5s0,0.3,0,0.4c0,1.1-0.2,2.1-0.5,2.9s-0.8,1.6-1.4,2.1s-1.3,1-2.1,1.3
			c-0.8,0.3-1.6,0.4-2.5,0.4c-0.9,0-1.8-0.1-2.7-0.4S45.7,71.5,45,71s-1.2-1.4-1.5-2.3s-0.6-2.1-0.6-3.5c0-0.7,0-1.4,0.1-2.1
			s0.1-1.3,0.2-1.8s0.1-1.1,0.2-1.6s0.1-0.9,0.1-1.3c0-0.8-0.1-1.3-0.2-1.5s-0.4-0.4-0.8-0.4c-0.2,0-0.5,0.1-0.7,0.2l0.3,3.8
			c-0.1,0.5-0.1,0.9-0.2,1.4s-0.1,0.9-0.1,1.3s-0.1,0.8-0.1,1.1s0,0.6,0,0.8c0,1.2,0.1,2.2,0.4,3s0.5,1.5,0.8,2.1
			c-0.7,0.7-1.6,1.3-2.7,1.7s-2.4,0.6-3.8,0.6c-0.7,0-1.4-0.1-2.1-0.3s-1.4-0.5-2-0.9c-0.6-0.4-1.1-0.9-1.4-1.5s-0.6-1.3-0.6-2.2
			V40.3c0.7-0.4,1.6-0.8,2.7-1.1c1.1-0.3,2.1-0.4,3.2-0.4c0.8,0,1.6,0.1,2.4,0.3s1.5,0.4,2.1,0.8s1.1,0.8,1.5,1.4s0.6,1.3,0.6,2.1
			V45.6z"/>
	</g>
</g>
<g>
	<g>
		<path fill="#2185D0" d="M71.9,74.9c-1.8,0-3.5-0.3-5.1-0.8s-3-1.4-4.2-2.6s-2.1-2.6-2.8-4.3s-1-3.7-1-6c0-2.1,0.3-3.9,1-5.6
			s1.5-3.1,2.7-4.3s2.5-2.1,4.1-2.7s3.4-0.9,5.3-0.9s3.7,0.3,5.3,1s3,1.6,4.1,2.8s2,2.7,2.7,4.3s0.9,3.5,0.9,5.5
			c0,2.1-0.3,3.9-0.9,5.6s-1.5,3.1-2.6,4.2s-2.5,2.1-4.1,2.7S74,74.9,71.9,74.9z M71.4,65.2c0.1,0.1,0.3,0.2,0.5,0.2
			c0.3,0,0.5-0.1,0.6-0.3s0.2-0.5,0.2-0.9v-3.4c0-0.7,0-1.3,0-1.8s-0.1-0.9-0.2-1.2s-0.2-0.5-0.3-0.6s-0.3-0.1-0.4-0.1
			c-0.1,0-0.3,0-0.3,0.1s-0.2,0.1-0.2,0.2c0,0.2,0,0.5,0.1,0.7s0.1,0.5,0.1,0.7s0,0.6,0,1s0,0.8,0,1.3V65.2z"/>
	</g>
	<g>
		<path fill="#060A19" d="M69.9,72.9c-1.8,0-3.5-0.3-5.1-0.8s-3-1.4-4.2-2.6s-2.1-2.6-2.8-4.3s-1-3.7-1-6c0-2.1,0.3-3.9,1-5.6
			s1.5-3.1,2.7-4.3s2.5-2.1,4.1-2.7s3.4-0.9,5.3-0.9s3.7,0.3,5.3,1s3,1.6,4.1,2.8s2,2.7,2.7,4.3s0.9,3.5,0.9,5.5
			c0,2.1-0.3,3.9-0.9,5.6s-1.5,3.1-2.6,4.2s-2.5,2.1-4.1,2.7S72,72.9,69.9,72.9z M69.4,63.2c0.1,0.1,0.3,0.2,0.5,0.2
			c0.3,0,0.5-0.1,0.6-0.3s0.2-0.5,0.2-0.9v-3.4c0-0.7,0-1.3,0-1.8s-0.1-0.9-0.2-1.2s-0.2-0.5-0.3-0.6s-0.3-0.1-0.4-0.1
			c-0.1,0-0.3,0-0.3,0.1s-0.2,0.1-0.2,0.2c0,0.2,0,0.5,0.1,0.7s0.1,0.5,0.1,0.7s0,0.6,0,1s0,0.8,0,1.3V63.2z"/>
	</g>
</g>
<g>
	<g>
		<path fill="#2185D0" d="M90.2,48.6c0.7,0,1.2,0,1.8,0.1s1,0.2,1.3,0.4c-0.9,0.6-1.5,1.2-1.8,1.7c-0.1,0.2-0.2,0.4-0.2,0.6
			c0,0.2,0.1,0.4,0.2,0.5s0.3,0.2,0.6,0.2c0.5-0.7,0.9-1.3,1.5-1.9s1.1-1,1.8-1.4s1.4-0.6,2.2-0.8s1.7-0.3,2.7-0.3
			c0.6,0,1.3,0.1,2.1,0.2s1.6,0.3,2.5,0.7s1.7,0.8,2.5,1.4s1.6,1.4,2.2,2.4s1.2,2.2,1.6,3.6s0.6,3.1,0.6,5.1c0,2-0.3,3.9-0.8,5.5
			s-1.4,3-2.4,4.1s-2.4,1.9-3.9,2.5s-3.2,0.9-5.2,0.9c-0.8,0-1.5,0-2.1-0.1s-1.1-0.1-1.5-0.2s-0.7-0.2-0.9-0.3s-0.4-0.2-0.5-0.2
			c-0.1,0.1-0.2,0.2-0.2,0.4c0,0.2,0.1,0.4,0.3,0.6s0.4,0.3,0.8,0.4S96.4,75,97,75s1.4,0.1,2.3,0.2v6.2c-0.3,0.1-0.7,0.3-1.1,0.4
			s-0.9,0.2-1.3,0.4s-0.9,0.2-1.4,0.2s-1,0.1-1.4,0.1c-1.1,0-2-0.1-2.9-0.3s-1.6-0.5-2.2-0.9s-1.1-1-1.4-1.7s-0.5-1.5-0.5-2.5V58.3
			c-0.5-0.7-0.8-1.4-1-2.2s-0.3-1.7-0.3-2.6c0-0.4,0-0.8,0.1-1.2s0.1-0.9,0.3-1.3s0.3-0.9,0.4-1.3s0.4-0.8,0.6-1.2H90.2z M98.9,64.7
			c0.1,0.1,0.3,0.2,0.5,0.2c0.3,0,0.5-0.1,0.6-0.3s0.2-0.5,0.2-0.9v-2.4c0-0.7,0-1.3,0-1.8s-0.1-0.9-0.2-1.2s-0.2-0.5-0.3-0.6
			s-0.3-0.1-0.4-0.1c-0.1,0-0.3,0-0.3,0.1s-0.2,0.1-0.2,0.2c0,0.2,0,0.5,0.1,0.7s0.1,0.5,0.1,0.7s0,0.6,0,1s0,0.8,0,1.3V64.7z"/>
	</g>
	<g>
		<path fill="#060A19" d="M88.2,46.6c0.7,0,1.2,0,1.8,0.1s1,0.2,1.3,0.4c-0.9,0.6-1.5,1.2-1.8,1.7c-0.1,0.2-0.2,0.4-0.2,0.6
			c0,0.2,0.1,0.4,0.2,0.5s0.3,0.2,0.6,0.2c0.5-0.7,0.9-1.3,1.5-1.9s1.1-1,1.8-1.4s1.4-0.6,2.2-0.8s1.7-0.3,2.7-0.3
			c0.6,0,1.3,0.1,2.1,0.2s1.6,0.3,2.5,0.7s1.7,0.8,2.5,1.4s1.6,1.4,2.2,2.4s1.2,2.2,1.6,3.6s0.6,3.1,0.6,5.1c0,2-0.3,3.9-0.8,5.5
			s-1.4,3-2.4,4.1s-2.4,1.9-3.9,2.5s-3.2,0.9-5.2,0.9c-0.8,0-1.5,0-2.1-0.1s-1.1-0.1-1.5-0.2s-0.7-0.2-0.9-0.3s-0.4-0.2-0.5-0.2
			c-0.1,0.1-0.2,0.2-0.2,0.4c0,0.2,0.1,0.4,0.3,0.6s0.4,0.3,0.8,0.4S94.4,73,95,73s1.4,0.1,2.3,0.2v6.2c-0.3,0.1-0.7,0.3-1.1,0.4
			s-0.9,0.2-1.3,0.4s-0.9,0.2-1.4,0.2s-1,0.1-1.4,0.1c-1.1,0-2-0.1-2.9-0.3s-1.6-0.5-2.2-0.9s-1.1-1-1.4-1.7s-0.5-1.5-0.5-2.5V56.3
			c-0.5-0.7-0.8-1.4-1-2.2s-0.3-1.7-0.3-2.6c0-0.4,0-0.8,0.1-1.2s0.1-0.9,0.3-1.3s0.3-0.9,0.4-1.3s0.4-0.8,0.6-1.2H88.2z M96.9,62.7
			c0.1,0.1,0.3,0.2,0.5,0.2c0.3,0,0.5-0.1,0.6-0.3s0.2-0.5,0.2-0.9v-2.4c0-0.7,0-1.3,0-1.8s-0.1-0.9-0.2-1.2s-0.2-0.5-0.3-0.6
			s-0.3-0.1-0.4-0.1c-0.1,0-0.3,0-0.3,0.1s-0.2,0.1-0.2,0.2c0,0.2,0,0.5,0.1,0.7s0.1,0.5,0.1,0.7s0,0.6,0,1s0,0.8,0,1.3V62.7z"/>
	</g>
</g>
<g>
	<g>
		<path fill="#2185D0" d="M6.3,9.3C6.2,9.4,6,9.5,5.7,9.6S5.2,9.8,4.8,9.8c-0.2,0-0.4,0-0.5-0.1S4,9.6,3.9,9.5
			C3.7,9.5,3.6,9.4,3.5,9.2C3.5,9.1,3.4,9,3.4,8.8V5.7H2.3C2.2,5.5,2.1,5.3,2,5.1C2,5,1.9,4.8,1.9,4.6c0-0.1,0-0.3,0-0.4
			C2,4,2,3.9,2.1,3.8c0-0.1,0.1-0.2,0.1-0.3c0.1-0.1,0.1-0.1,0.2-0.2h5c0.1,0.1,0.2,0.3,0.2,0.5c0.1,0.2,0.1,0.4,0.1,0.6
			c0,0.2,0,0.4-0.1,0.5c0,0.1-0.1,0.3-0.2,0.3C7.4,5.5,7.3,5.6,7.2,5.6S7,5.7,6.8,5.7H5.4c0,0,0,0.1,0,0.1c0,0,0,0.1,0,0.1
			c0,0,0,0,0.1,0s0.1,0,0.2,0c0.1,0,0.2,0,0.3,0h0.3V9.3z"/>
	</g>
	<g>
		<path fill="#060A19" d="M5.3,8.3C5.2,8.4,5,8.5,4.7,8.6S4.2,8.8,3.8,8.8c-0.2,0-0.4,0-0.5-0.1S3,8.6,2.9,8.5
			C2.7,8.5,2.6,8.4,2.5,8.2C2.5,8.1,2.4,8,2.4,7.8V4.7H1.3C1.2,4.5,1.1,4.3,1,4.1C1,4,0.9,3.8,0.9,3.6c0-0.1,0-0.3,0-0.4
			C1,3,1,2.9,1.1,2.8c0-0.1,0.1-0.2,0.1-0.3c0.1-0.1,0.1-0.1,0.2-0.2h5c0.1,0.1,0.2,0.3,0.2,0.5s0.1,0.4,0.1,0.6
			c0,0.2,0,0.4-0.1,0.5c0,0.1-0.1,0.3-0.2,0.3C6.4,4.5,6.3,4.6,6.2,4.6S6,4.7,5.8,4.7H4.4c0,0,0,0.1,0,0.1c0,0,0,0.1,0,0.1
			c0,0,0,0,0.1,0s0.1,0,0.2,0c0.1,0,0.2,0,0.3,0h0.3V8.3z"/>
	</g>
</g>
<g>
	<g>
		<path fill="#2185D0" d="M10.6,4.2c-0.2,0-0.3,0-0.4,0.1c-0.1,0-0.3,0.1-0.4,0.2C9.6,4.5,9.6,4.5,9.5,4.6C9.4,4.7,9.4,4.7,9.4,4.8
			c0,0,0,0.1,0,0.1s0.1,0,0.1,0c0.1-0.1,0.1-0.1,0.2-0.2c0.1-0.1,0.2-0.1,0.3-0.2c0.1-0.1,0.3-0.1,0.4-0.1s0.3,0,0.5,0
			c0.1,0,0.3,0,0.4,0s0.3,0.1,0.5,0.1s0.3,0.1,0.4,0.2c0.1,0.1,0.3,0.2,0.4,0.4s0.2,0.3,0.3,0.5s0.1,0.4,0.1,0.7c0,0.1,0,0.3,0,0.5
			s0,0.3,0,0.5c0,0.2,0,0.4,0.1,0.6s0.1,0.3,0.3,0.3c0,0,0,0.1,0,0.1c0,0,0,0.1,0,0.1c0,0.2,0,0.4-0.1,0.6c-0.1,0.2-0.2,0.3-0.3,0.4
			s-0.3,0.2-0.4,0.3c-0.2,0.1-0.3,0.1-0.5,0.1c-0.2,0-0.4,0-0.6-0.1c-0.2-0.1-0.3-0.1-0.5-0.3c-0.1-0.1-0.2-0.3-0.3-0.5
			c-0.1-0.2-0.1-0.4-0.1-0.7c0-0.2,0-0.3,0-0.4s0-0.3,0-0.4c0-0.1,0-0.2,0-0.3s0-0.2,0-0.3c0-0.2,0-0.3-0.1-0.3
			c0-0.1-0.1-0.1-0.2-0.1c0,0-0.1,0-0.1,0l0.1,0.8c0,0.1,0,0.2,0,0.3c0,0.1,0,0.2,0,0.3s0,0.2,0,0.2c0,0.1,0,0.1,0,0.2
			c0,0.3,0,0.5,0.1,0.6s0.1,0.3,0.2,0.4c-0.1,0.1-0.3,0.3-0.6,0.4C9.8,9.7,9.6,9.8,9.3,9.8c-0.1,0-0.3,0-0.4-0.1S8.5,9.6,8.4,9.5
			C8.3,9.4,8.2,9.3,8.1,9.2C8,9.1,8,8.9,8,8.7V3C8.1,3,8.3,2.9,8.5,2.8C8.8,2.8,9,2.7,9.2,2.7c0.2,0,0.3,0,0.5,0.1S10,2.9,10.1,3
			c0.1,0.1,0.2,0.2,0.3,0.3c0.1,0.1,0.1,0.3,0.1,0.4V4.2z"/>
	</g>
	<g>
		<path fill="#060A19" d="M9.6,3.2c-0.2,0-0.3,0-0.4,0.1C9,3.3,8.8,3.3,8.7,3.4C8.6,3.5,8.6,3.5,8.5,3.6C8.4,3.7,8.4,3.7,8.4,3.8
			c0,0,0,0.1,0,0.1s0.1,0,0.1,0c0.1-0.1,0.1-0.1,0.2-0.2C8.9,3.6,9,3.6,9.1,3.5c0.1-0.1,0.3-0.1,0.4-0.1s0.3,0,0.5,0
			c0.1,0,0.3,0,0.4,0s0.3,0.1,0.5,0.1s0.3,0.1,0.4,0.2c0.1,0.1,0.3,0.2,0.4,0.4c0.1,0.1,0.2,0.3,0.3,0.5s0.1,0.4,0.1,0.7
			c0,0.1,0,0.3,0,0.5s0,0.3,0,0.5c0,0.2,0,0.4,0.1,0.6s0.1,0.3,0.3,0.3c0,0,0,0.1,0,0.1c0,0,0,0.1,0,0.1c0,0.2,0,0.4-0.1,0.6
			c-0.1,0.2-0.2,0.3-0.3,0.4s-0.3,0.2-0.4,0.3c-0.2,0.1-0.3,0.1-0.5,0.1c-0.2,0-0.4,0-0.6-0.1c-0.2-0.1-0.3-0.1-0.5-0.3
			C9.9,8.3,9.8,8.2,9.7,8C9.7,7.8,9.6,7.5,9.6,7.2c0-0.2,0-0.3,0-0.4s0-0.3,0-0.4c0-0.1,0-0.2,0-0.3s0-0.2,0-0.3
			c0-0.2,0-0.3-0.1-0.3c0-0.1-0.1-0.1-0.2-0.1c0,0-0.1,0-0.1,0l0.1,0.8c0,0.1,0,0.2,0,0.3c0,0.1,0,0.2,0,0.3s0,0.2,0,0.2
			s0,0.1,0,0.2c0,0.3,0,0.5,0.1,0.6C9.5,8,9.5,8.2,9.6,8.3C9.5,8.4,9.3,8.6,9,8.6C8.8,8.7,8.6,8.8,8.3,8.8c-0.1,0-0.3,0-0.4-0.1
			S7.5,8.6,7.4,8.5C7.3,8.4,7.2,8.3,7.1,8.2C7,8.1,7,7.9,7,7.7V2C7.1,2,7.3,1.9,7.5,1.8C7.8,1.8,8,1.7,8.2,1.7c0.2,0,0.3,0,0.5,0.1
			S9,1.9,9.1,2C9.3,2,9.4,2.1,9.4,2.3c0.1,0.1,0.1,0.3,0.1,0.4V3.2z"/>
	</g>
</g>
<g>
	<g>
		<path fill="#2185D0" d="M16.4,9.8c-0.4,0-0.8-0.1-1.2-0.2c-0.4-0.1-0.7-0.3-0.9-0.6c-0.3-0.2-0.5-0.5-0.6-0.9
			c-0.1-0.3-0.2-0.7-0.2-1.2c0-0.5,0.1-0.9,0.2-1.2s0.3-0.6,0.6-0.9s0.5-0.4,0.9-0.5s0.7-0.2,1.1-0.2c0.4,0,0.7,0.1,1.1,0.2
			c0.3,0.1,0.6,0.3,0.8,0.5s0.4,0.4,0.5,0.7s0.2,0.6,0.2,0.9c0,0.3-0.1,0.5-0.2,0.7s-0.2,0.4-0.4,0.5c-0.2,0.1-0.4,0.2-0.6,0.3
			c-0.3,0.1-0.5,0.1-0.8,0.1c-0.2,0-0.4,0-0.6-0.1c-0.2-0.1-0.4-0.1-0.5-0.2c0,0,0,0,0,0.1c0,0,0,0,0,0.1c0,0,0,0.1,0.1,0.1
			c0.1,0,0.2,0.1,0.3,0.1c0.1,0,0.2,0.1,0.4,0.1c0.1,0,0.3,0,0.4,0c0.2,0,0.4,0,0.6,0c0.2,0,0.3-0.1,0.4-0.1c0.1,0,0.2-0.1,0.3-0.1
			c0.1,0,0.2-0.1,0.2-0.1c0,0,0.1,0.1,0.1,0.2c0,0.1,0.1,0.1,0.1,0.2s0,0.2,0.1,0.3c0,0.1,0,0.2,0,0.2s0,0.1,0,0.2
			c0,0.1,0,0.1,0,0.2c-0.1,0.1-0.2,0.2-0.3,0.3c-0.1,0.1-0.3,0.2-0.4,0.2c-0.2,0.1-0.4,0.1-0.6,0.1C17,9.8,16.7,9.8,16.4,9.8z
			 M16.4,6.5c0.1,0,0.1,0,0.2-0.1c0,0,0.1-0.1,0.1-0.1c0-0.1,0-0.1-0.1-0.1s-0.1,0-0.2,0c-0.1,0-0.2,0-0.2,0.1
			c-0.1,0-0.1,0.1-0.1,0.2c0,0,0.1,0,0.1,0.1C16.2,6.5,16.3,6.5,16.4,6.5z"/>
	</g>
	<g>
		<path fill="#060A19" d="M15.4,8.8c-0.4,0-0.8-0.1-1.2-0.2c-0.4-0.1-0.7-0.3-0.9-0.6c-0.3-0.2-0.5-0.5-0.6-0.9S12.5,6.5,12.5,6
			c0-0.5,0.1-0.9,0.2-1.2s0.3-0.6,0.6-0.9c0.3-0.2,0.5-0.4,0.9-0.5s0.7-0.2,1.1-0.2c0.4,0,0.7,0.1,1.1,0.2c0.3,0.1,0.6,0.3,0.8,0.5
			c0.2,0.2,0.4,0.4,0.5,0.7s0.2,0.6,0.2,0.9c0,0.3-0.1,0.5-0.2,0.7s-0.2,0.4-0.4,0.5c-0.2,0.1-0.4,0.2-0.6,0.3s-0.5,0.1-0.8,0.1
			c-0.2,0-0.4,0-0.6-0.1s-0.4-0.1-0.5-0.2c0,0,0,0,0,0.1c0,0,0,0,0,0.1c0,0,0,0.1,0.1,0.1c0.1,0,0.2,0.1,0.3,0.1
			c0.1,0,0.2,0.1,0.4,0.1c0.1,0,0.3,0,0.4,0c0.2,0,0.4,0,0.6,0c0.2,0,0.3-0.1,0.4-0.1c0.1,0,0.2-0.1,0.3-0.1s0.2-0.1,0.2-0.1
			c0,0,0.1,0.1,0.1,0.2c0,0.1,0.1,0.1,0.1,0.2s0,0.2,0.1,0.3c0,0.1,0,0.2,0,0.2s0,0.1,0,0.2c0,0.1,0,0.1,0,0.2
			c-0.1,0.1-0.2,0.2-0.3,0.3c-0.1,0.1-0.3,0.2-0.4,0.2c-0.2,0.1-0.4,0.1-0.6,0.1C16,8.8,15.7,8.8,15.4,8.8z M15.4,5.5
			c0.1,0,0.1,0,0.2-0.1c0,0,0.1-0.1,0.1-0.1c0-0.1,0-0.1-0.1-0.1s-0.1,0-0.2,0c-0.1,0-0.2,0-0.2,0.1c-0.1,0-0.1,0.1-0.1,0.2
			c0,0,0.1,0,0.1,0.1C15.2,5.5,15.3,5.5,15.4,5.5z"/>
	</g>
</g>
<g>
	<g>
		<path fill="#2185D0" d="M35.7,27.3c-0.5,0-1-0.1-1.4-0.3s-0.8-0.5-1.1-0.9s-0.6-0.9-0.8-1.5s-0.3-1.3-0.3-2c0-0.6,0.1-1.1,0.2-1.6
			s0.2-0.9,0.4-1.3s0.3-0.7,0.5-1s0.4-0.5,0.5-0.6h13.9c0.5,0.7,0.8,1.5,1,2.3s0.3,1.7,0.3,2.5c0,0.9-0.1,1.8-0.3,2.6
			s-0.5,1.4-0.8,1.9h-1v7c-0.6,0.5-1.3,1-2.1,1.5S43,36.8,42,37.2s-2.1,0.7-3.3,0.9s-2.6,0.3-4.1,0.3c-1.5,0-2.9-0.1-4.3-0.4
			s-2.7-0.7-3.9-1.2S24,35.5,23,34.7s-1.9-1.9-2.7-3s-1.3-2.5-1.7-4S18,24.4,18,22.5c0-2.6,0.4-4.9,1.2-6.9s1.9-3.6,3.4-5
			s3.2-2.3,5.2-3s4.2-1,6.6-1c1.3,0,2.5,0.1,3.7,0.3s2.3,0.5,3.4,0.8c1,0.4,2,0.8,2.9,1.2s1.6,0.9,2.2,1.5c0,0.5,0,1.1-0.1,1.7
			s-0.1,1.2-0.2,1.8s-0.2,1.2-0.4,1.7s-0.3,1-0.5,1.3H32.9c-0.2,0.2-0.4,0.5-0.6,0.8s-0.5,0.8-0.7,1.2s-0.4,1-0.5,1.6
			s-0.2,1.3-0.2,2.1c0,1,0.1,1.8,0.4,2.5s0.6,1.3,1,1.7c0.4,0.5,0.9,0.8,1.4,1s1.1,0.3,1.6,0.3c0.3,0,0.5-0.1,0.6-0.2
			s0.2-0.2,0.2-0.4v-0.5H35.7z"/>
	</g>
	<g>
		<path fill="#060A19" d="M33.7,25.3c-0.5,0-1-0.1-1.4-0.3c-0.4-0.2-0.8-0.5-1.1-0.9s-0.6-0.9-0.8-1.5s-0.3-1.3-0.3-2
			c0-0.6,0.1-1.1,0.2-1.6s0.2-0.9,0.4-1.3s0.3-0.7,0.5-1s0.4-0.5,0.5-0.6h13.9c0.5,0.7,0.8,1.5,1,2.3s0.3,1.7,0.3,2.5
			c0,0.9-0.1,1.8-0.3,2.6s-0.5,1.4-0.8,1.9h-1v7c-0.6,0.5-1.3,1-2.1,1.5S41,34.8,40,35.2s-2.1,0.7-3.3,0.9s-2.6,0.3-4.1,0.3
			c-1.5,0-2.9-0.1-4.3-0.4s-2.7-0.7-3.9-1.2S22,33.5,21,32.7s-1.9-1.9-2.7-3s-1.3-2.5-1.7-4S16,22.4,16,20.5c0-2.6,0.4-4.9,1.2-6.9
			s1.9-3.6,3.4-5s3.2-2.3,5.2-3s4.2-1,6.6-1c1.3,0,2.5,0.1,3.7,0.3s2.3,0.5,3.4,0.8s2,0.8,2.9,1.2s1.6,0.9,2.2,1.5
			c0,0.5,0,1.1-0.1,1.7s-0.1,1.2-0.2,1.8s-0.2,1.2-0.4,1.7s-0.3,1-0.5,1.3H30.9c-0.2,0.2-0.4,0.5-0.6,0.8s-0.5,0.8-0.7,1.2
			s-0.4,1-0.5,1.6s-0.2,1.3-0.2,2.1c0,1,0.1,1.8,0.4,2.5s0.6,1.3,1,1.7s0.9,0.8,1.4,1c0.5,0.2,1.1,0.3,1.6,0.3
			c0.3,0,0.5-0.1,0.6-0.2s0.2-0.2,0.2-0.4v-0.5H33.7z"/>
	</g>
</g>
<g>
	<g>
		<path fill="#2185D0" d="M62.9,38.4c-1.8,0-3.5-0.3-5.1-0.8s-3-1.4-4.2-2.6s-2.1-2.6-2.8-4.3s-1-3.7-1-6c0-2.1,0.3-3.9,1-5.6
			s1.5-3.1,2.7-4.3s2.5-2.1,4.1-2.7s3.4-0.9,5.3-0.9s3.7,0.3,5.3,1s3,1.6,4.1,2.8s2,2.7,2.7,4.3S76,23,76,25c0,2.1-0.3,3.9-0.9,5.6
			s-1.5,3.1-2.6,4.2s-2.5,2.1-4.1,2.7S64.9,38.4,62.9,38.4z M62.3,28.7c0.1,0.1,0.3,0.2,0.5,0.2c0.3,0,0.5-0.1,0.6-0.3
			s0.2-0.5,0.2-0.9v-3.4c0-0.7,0-1.3,0-1.8s-0.1-0.9-0.2-1.2s-0.2-0.5-0.3-0.6s-0.3-0.1-0.4-0.1c-0.1,0-0.3,0-0.3,0.1
			s-0.2,0.1-0.2,0.2c0,0.2,0,0.5,0.1,0.7s0.1,0.5,0.1,0.7s0,0.6,0,1s0,0.8,0,1.3V28.7z"/>
	</g>
	<g>
		<path fill="#060A19" d="M60.9,36.4c-1.8,0-3.5-0.3-5.1-0.8s-3-1.4-4.2-2.6s-2.1-2.6-2.8-4.3s-1-3.7-1-6c0-2.1,0.3-3.9,1-5.6
			s1.5-3.1,2.7-4.3s2.5-2.1,4.1-2.7s3.4-0.9,5.3-0.9s3.7,0.3,5.3,1s3,1.6,4.1,2.8s2,2.7,2.7,4.3S74,21,74,23c0,2.1-0.3,3.9-0.9,5.6
			s-1.5,3.1-2.6,4.2s-2.5,2.1-4.1,2.7S62.9,36.4,60.9,36.4z M60.3,26.7c0.1,0.1,0.3,0.2,0.5,0.2c0.3,0,0.5-0.1,0.6-0.3
			s0.2-0.5,0.2-0.9v-3.4c0-0.7,0-1.3,0-1.8s-0.1-0.9-0.2-1.2s-0.2-0.5-0.3-0.6s-0.3-0.1-0.4-0.1c-0.1,0-0.3,0-0.3,0.1
			s-0.2,0.1-0.2,0.2c0,0.2,0,0.5,0.1,0.7s0.1,0.5,0.1,0.7s0,0.6,0,1s0,0.8,0,1.3V26.7z"/>
	</g>
</g>
<g>
	<g>
		<path fill="#2185D0" d="M78.1,5.4c0.3-0.2,0.8-0.3,1.2-0.5s1-0.3,1.6-0.4s1.3-0.2,1.9-0.2c1.1,0,2.1,0.1,2.9,0.4s1.5,0.6,2,1
			s0.9,1,1.1,1.6s0.4,1.3,0.4,2.1v16.5c0,1.1,0.1,2,0.4,2.8s0.7,1.4,1.3,1.8c0,0.1,0,0.3,0,0.5s0,0.3,0,0.4c0,2.3-0.6,4-1.7,5.1
			s-2.7,1.7-4.8,1.7c-0.9,0-1.8-0.1-2.7-0.4s-1.6-0.7-2.3-1.3s-1.2-1.4-1.6-2.5s-0.6-2.3-0.6-3.8V5.8C77.5,5.7,77.7,5.5,78.1,5.4z"
			/>
	</g>
	<g>
		<path fill="#060A19" d="M76.1,3.4c0.3-0.2,0.8-0.3,1.2-0.5s1-0.3,1.6-0.4s1.3-0.2,1.9-0.2c1.1,0,2.1,0.1,2.9,0.4s1.5,0.6,2,1
			s0.9,1,1.1,1.6s0.4,1.3,0.4,2.1v16.5c0,1.1,0.1,2,0.4,2.8s0.7,1.4,1.3,1.8c0,0.1,0,0.3,0,0.5s0,0.3,0,0.4c0,2.3-0.6,4-1.7,5.1
			s-2.7,1.7-4.8,1.7c-0.9,0-1.8-0.1-2.7-0.4s-1.6-0.7-2.3-1.3s-1.2-1.4-1.6-2.5s-0.6-2.3-0.6-3.8V3.8C75.5,3.7,75.7,3.5,76.1,3.4z"
			/>
	</g>
</g>
<g>
	<g>
		<path fill="#2185D0" d="M106.7,14c-0.4,0-0.9,0-1.3,0s-0.9-0.1-1.3-0.1s-0.8-0.1-1.2-0.2s-0.6-0.1-0.9-0.2c0,0-0.1,0.1-0.1,0.2
			s0,0.2,0,0.3c0,0.3,0.4,0.5,1.1,0.7s2,0.3,3.7,0.3c1,0,1.8,0,2.4-0.1s1.2-0.1,1.7-0.2c0.1,0.1,0.1,0.3,0.2,0.6s0.1,0.6,0.2,0.9
			s0.1,0.7,0.1,1s0,0.7,0,1c0,0.8-0.1,1.5-0.2,2.1s-0.3,1.1-0.6,1.5h-4.3v14.6c-0.5,0.3-1.1,0.6-1.6,0.8s-1.1,0.4-1.6,0.5
			s-1,0.2-1.5,0.2S100.4,38,100,38c-0.9,0-1.7-0.1-2.5-0.2s-1.4-0.4-2-0.8s-1-0.8-1.3-1.3s-0.5-1.1-0.5-1.9v-11h0.7
			c0.4,0,0.7-0.1,0.9-0.2s0.3-0.3,0.3-0.6c0-0.1,0-0.2,0-0.3h-3.9c-0.5-0.7-0.8-1.4-1-2.2s-0.3-1.6-0.3-2.4c0-0.8,0.1-1.7,0.3-2.7
			s0.6-1.8,1-2.5h2c0.2-1.3,0.5-2.4,1.1-3.4s1.2-1.8,2-2.5s1.8-1.2,2.9-1.5S102,4,103.4,4c1.1,0,2.1,0.1,3,0.3s1.7,0.4,2.4,0.7
			s1.3,0.6,1.8,0.9s0.9,0.6,1.2,1c0.1,0.2,0.1,0.4,0.1,0.6s0.1,0.4,0.1,0.7c0,0.2,0,0.4,0,0.6s0,0.3,0,0.4c0,0.9-0.1,1.6-0.2,2.3
			s-0.3,1.3-0.5,1.9c-0.5,0.2-1.1,0.3-1.9,0.5S107.7,14,106.7,14z"/>
	</g>
	<g>
		<path fill="#060A19" d="M104.7,12c-0.4,0-0.9,0-1.3,0s-0.9-0.1-1.3-0.1s-0.8-0.1-1.2-0.2s-0.6-0.1-0.9-0.2c0,0-0.1,0.1-0.1,0.2
			s0,0.2,0,0.3c0,0.3,0.4,0.5,1.1,0.7s2,0.3,3.7,0.3c1,0,1.8,0,2.4-0.1s1.2-0.1,1.7-0.2c0.1,0.1,0.1,0.3,0.2,0.6s0.1,0.6,0.2,0.9
			s0.1,0.7,0.1,1s0,0.7,0,1c0,0.8-0.1,1.5-0.2,2.1s-0.3,1.1-0.6,1.5h-4.3v14.6c-0.5,0.3-1.1,0.6-1.6,0.8s-1.1,0.4-1.6,0.5
			s-1,0.2-1.5,0.2S98.4,36,98,36c-0.9,0-1.7-0.1-2.5-0.2s-1.4-0.4-2-0.8s-1-0.8-1.3-1.3s-0.5-1.1-0.5-1.9v-11h0.7
			c0.4,0,0.7-0.1,0.9-0.2s0.3-0.3,0.3-0.6c0-0.1,0-0.2,0-0.3h-3.9c-0.5-0.7-0.8-1.4-1-2.2s-0.3-1.6-0.3-2.4c0-0.8,0.1-1.7,0.3-2.7
			s0.6-1.8,1-2.5h2c0.2-1.3,0.5-2.4,1.1-3.4s1.2-1.8,2-2.5s1.8-1.2,2.9-1.5S100,2,101.4,2c1.1,0,2.1,0.1,3,0.3s1.7,0.4,2.4,0.7
			s1.3,0.6,1.8,0.9s0.9,0.6,1.2,1c0.1,0.2,0.1,0.4,0.1,0.6s0.1,0.4,0.1,0.7s0,0.4,0,0.6s0,0.3,0,0.4c0,0.9-0.1,1.6-0.2,2.3
			s-0.3,1.3-0.5,1.9c-0.5,0.2-1.1,0.3-1.9,0.5S105.7,12,104.7,12z"/>
	</g>
</g>
</svg>
